<svg width="390" height="298" viewBox="0 0 390 298" fill="none" xmlns="http://www.w3.org/2000/svg">
<g opacity="0.08">
<path d="M2.21011 -8.70308C2.21011 -9.73945 3.05026 -10.5796 4.08662 -10.5796H20.3155C21.3519 -10.5796 22.192 -9.73945 22.192 -8.70308V1.73674C22.192 2.77311 21.3519 3.61326 20.3155 3.61326H4.08662C3.05026 3.61326 2.21011 2.77311 2.21011 1.73674V-8.70308Z" fill="#000E3D"/>
<path d="M26.0564 -8.24849C26.0564 -9.28486 26.8966 -10.125 27.9329 -10.125H65.3028C66.3391 -10.125 67.1793 -9.28486 67.1793 -8.24849V1.28154C67.1793 2.31791 66.3391 3.15805 65.3028 3.15805H27.9329C26.8966 3.15805 26.0564 2.31791 26.0564 1.28154V-8.24849Z" fill="#000E3D"/>
<path d="M48.0327 -8.70308C48.0327 -9.73945 48.8728 -10.5796 49.9092 -10.5796H66.1381C67.1744 -10.5796 68.0146 -9.73945 68.0146 -8.70308V1.73674C68.0146 2.77311 67.1744 3.61326 66.1381 3.61326H49.9092C48.8728 3.61326 48.0327 2.77311 48.0327 1.73674V-8.70308Z" fill="#000E3D"/>
<path d="M71.8789 -8.24849C71.8789 -9.28486 72.7191 -10.125 73.7554 -10.125H111.125C112.162 -10.125 113.002 -9.28486 113.002 -8.24849V1.28154C113.002 2.31791 112.162 3.15805 111.125 3.15805H73.7554C72.7191 3.15805 71.8789 2.31791 71.8789 1.28154V-8.24849Z" fill="#000E3D"/>
<path d="M93.8552 -8.70308C93.8552 -9.73945 94.6954 -10.5796 95.7317 -10.5796H111.961C112.997 -10.5796 113.837 -9.73945 113.837 -8.70308V1.73674C113.837 2.77311 112.997 3.61326 111.961 3.61326H95.7317C94.6954 3.61326 93.8552 2.77311 93.8552 1.73674V-8.70308Z" fill="#000E3D"/>
<path d="M117.702 -8.24849C117.702 -9.28486 118.542 -10.125 119.578 -10.125H156.948C157.984 -10.125 158.824 -9.28486 158.824 -8.24849V1.28154C158.824 2.31791 157.984 3.15805 156.948 3.15805H119.578C118.542 3.15805 117.702 2.31791 117.702 1.28154V-8.24849Z" fill="#000E3D"/>
<path d="M139.678 -8.70308C139.678 -9.73945 140.518 -10.5796 141.554 -10.5796H157.783C158.819 -10.5796 159.66 -9.73945 159.66 -8.70308V1.73674C159.66 2.77311 158.819 3.61326 157.783 3.61326H141.554C140.518 3.61326 139.678 2.77311 139.678 1.73674V-8.70308Z" fill="#000E3D"/>
<path d="M163.524 -8.24849C163.524 -9.28486 164.364 -10.125 165.4 -10.125H202.77C203.807 -10.125 204.647 -9.28486 204.647 -8.24849V1.28154C204.647 2.31791 203.807 3.15805 202.77 3.15805H165.4C164.364 3.15805 163.524 2.31791 163.524 1.28154V-8.24849Z" fill="#000E3D"/>
<path d="M185.5 -8.70308C185.5 -9.73945 186.34 -10.5796 187.377 -10.5796H203.606C204.642 -10.5796 205.482 -9.73945 205.482 -8.70308V1.73674C205.482 2.77311 204.642 3.61326 203.606 3.61326H187.377C186.34 3.61326 185.5 2.77311 185.5 1.73674V-8.70308Z" fill="#000E3D"/>
<path d="M209.346 -8.24849C209.346 -9.28486 210.187 -10.125 211.223 -10.125H248.593C249.629 -10.125 250.469 -9.28486 250.469 -8.24849V1.28154C250.469 2.31791 249.629 3.15805 248.593 3.15805H211.223C210.187 3.15805 209.346 2.31791 209.346 1.28154V-8.24849Z" fill="#000E3D"/>
<path d="M231.323 -8.70308C231.323 -9.73945 232.163 -10.5796 233.199 -10.5796H249.428C250.465 -10.5796 251.305 -9.73945 251.305 -8.70308V1.73674C251.305 2.77311 250.464 3.61326 249.428 3.61326H233.199C232.163 3.61326 231.323 2.77311 231.323 1.73674V-8.70308Z" fill="#000E3D"/>
<path d="M255.169 -8.24849C255.169 -9.28486 256.009 -10.125 257.046 -10.125H294.415C295.452 -10.125 296.292 -9.28486 296.292 -8.24849V1.28154C296.292 2.31791 295.452 3.15805 294.415 3.15805H257.046C256.009 3.15805 255.169 2.31791 255.169 1.28154V-8.24849Z" fill="#000E3D"/>
<path d="M277.145 -8.70308C277.145 -9.73945 277.985 -10.5796 279.022 -10.5796H295.251C296.287 -10.5796 297.127 -9.73945 297.127 -8.70308V1.73674C297.127 2.77311 296.287 3.61326 295.251 3.61326H279.022C277.985 3.61326 277.145 2.77311 277.145 1.73674V-8.70308Z" fill="#000E3D"/>
<path d="M300.992 -8.24849C300.992 -9.28486 301.832 -10.125 302.868 -10.125H340.238C341.274 -10.125 342.114 -9.28486 342.114 -8.24849V1.28154C342.114 2.31791 341.274 3.15805 340.238 3.15805H302.868C301.832 3.15805 300.992 2.31791 300.992 1.28154V-8.24849Z" fill="#000E3D"/>
<path d="M322.968 -8.70308C322.968 -9.73945 323.808 -10.5796 324.844 -10.5796H341.073C342.11 -10.5796 342.95 -9.73945 342.95 -8.70308V1.73674C342.95 2.77311 342.11 3.61326 341.073 3.61326H324.844C323.808 3.61326 322.968 2.77311 322.968 1.73674V-8.70308Z" fill="#000E3D"/>
<path d="M346.814 -8.24849C346.814 -9.28486 347.654 -10.125 348.691 -10.125H386.06C387.097 -10.125 387.937 -9.28486 387.937 -8.24849V1.28154C387.937 2.31791 387.097 3.15805 386.06 3.15805H348.691C347.654 3.15805 346.814 2.31791 346.814 1.28154V-8.24849Z" fill="#000E3D"/>
<path d="M2.20993 7.75737C2.20993 6.721 3.05007 5.88086 4.08644 5.88086H20.3154C21.3517 5.88086 22.1919 6.721 22.1919 7.75737V18.1972C22.1919 19.2336 21.3517 20.0737 20.3154 20.0737H4.08644C3.05007 20.0737 2.20993 19.2336 2.20993 18.1972V7.75737Z" fill="#000E3D"/>
<path d="M2.21011 40.2374C2.21011 39.201 3.05026 38.3608 4.08662 38.3608H20.3155C21.3519 38.3608 22.192 39.201 22.192 40.2374V50.6772C22.192 51.7135 21.3519 52.5537 20.3155 52.5537H4.08662C3.05026 52.5537 2.21011 51.7135 2.21011 50.6772V40.2374Z" fill="#000E3D"/>
<path d="M26.0564 7.75737C26.0564 6.721 26.8965 5.88086 27.9329 5.88086H65.3027C66.3391 5.88086 67.1793 6.721 67.1793 7.75737V18.1972C67.1793 19.2336 66.3391 20.0737 65.3027 20.0737H27.9329C26.8965 20.0737 26.0564 19.2336 26.0564 18.1972V7.75737Z" fill="#000E3D"/>
<path d="M2.21011 24.2251C2.21011 23.1888 3.05026 22.3486 4.08662 22.3486H40.3647C41.4011 22.3486 42.2412 23.1888 42.2412 24.2251V34.0281C42.2412 35.0645 41.4011 35.9046 40.3647 35.9046H4.08662C3.05026 35.9046 2.21011 35.0645 2.21011 34.0281V24.2251Z" fill="#E5102E"/>
<path d="M45.8899 24.2251C45.8899 23.1888 46.73 22.3486 47.7664 22.3486H65.3027C66.339 22.3486 67.1792 23.1888 67.1792 24.2251V34.0281C67.1792 35.0645 66.339 35.9046 65.3027 35.9046H47.7664C46.73 35.9046 45.8899 35.0645 45.8899 34.0281V24.2251Z" fill="#000E3D"/>
<path d="M26.0564 40.6919C26.0564 39.6556 26.8965 38.8154 27.9329 38.8154H65.3027C66.3391 38.8154 67.1793 39.6556 67.1793 40.6919V50.222C67.1793 51.2583 66.3391 52.0985 65.3027 52.0985H27.9329C26.8965 52.0985 26.0564 51.2583 26.0564 50.222V40.6919Z" fill="#000E3D"/>
<path d="M48.0324 7.75737C48.0324 6.721 48.8726 5.88086 49.909 5.88086H66.1379C67.1742 5.88086 68.0144 6.721 68.0144 7.75737V18.1972C68.0144 19.2336 67.1742 20.0737 66.1379 20.0737H49.909C48.8726 20.0737 48.0324 19.2336 48.0324 18.1972V7.75737Z" fill="#000E3D"/>
<path d="M48.0326 40.2374C48.0326 39.201 48.8728 38.3608 49.9091 38.3608H66.138C67.1744 38.3608 68.0146 39.201 68.0146 40.2374V50.6772C68.0146 51.7135 67.1744 52.5537 66.138 52.5537H49.9091C48.8728 52.5537 48.0326 51.7135 48.0326 50.6772V40.2374Z" fill="#000E3D"/>
<path d="M71.8789 7.75737C71.8789 6.721 72.7191 5.88086 73.7554 5.88086H111.125C112.162 5.88086 113.002 6.721 113.002 7.75737V18.1972C113.002 19.2336 112.162 20.0737 111.125 20.0737H73.7554C72.7191 20.0737 71.8789 19.2336 71.8789 18.1972V7.75737Z" fill="#000E3D"/>
<path d="M48.0326 24.2251C48.0326 23.1888 48.8728 22.3486 49.9091 22.3486H86.1872C87.2236 22.3486 88.0637 23.1888 88.0637 24.2251V34.0281C88.0637 35.0645 87.2236 35.9046 86.1872 35.9046H49.9091C48.8728 35.9046 48.0326 35.0645 48.0326 34.0281V24.2251Z" fill="#E5102E"/>
<path d="M91.7124 24.2251C91.7124 23.1888 92.5525 22.3486 93.5889 22.3486H111.125C112.162 22.3486 113.002 23.1888 113.002 24.2251V34.0281C113.002 35.0645 112.162 35.9046 111.125 35.9046H93.5889C92.5525 35.9046 91.7124 35.0645 91.7124 34.0281V24.2251Z" fill="#000E3D"/>
<path d="M71.8789 40.6919C71.8789 39.6556 72.7191 38.8154 73.7554 38.8154H111.125C112.162 38.8154 113.002 39.6556 113.002 40.6919V50.222C113.002 51.2583 112.162 52.0985 111.125 52.0985H73.7554C72.7191 52.0985 71.8789 51.2583 71.8789 50.222V40.6919Z" fill="#000E3D"/>
<path d="M93.855 7.75737C93.855 6.721 94.6951 5.88086 95.7315 5.88086H111.96C112.997 5.88086 113.837 6.721 113.837 7.75737V18.1972C113.837 19.2336 112.997 20.0737 111.96 20.0737H95.7315C94.6951 20.0737 93.855 19.2336 93.855 18.1972V7.75737Z" fill="#000E3D"/>
<path d="M93.8552 40.2374C93.8552 39.201 94.6953 38.3608 95.7317 38.3608H111.961C112.997 38.3608 113.837 39.201 113.837 40.2374V50.6772C113.837 51.7135 112.997 52.5537 111.961 52.5537H95.7317C94.6953 52.5537 93.8552 51.7135 93.8552 50.6772V40.2374Z" fill="#000E3D"/>
<path d="M117.701 7.75737C117.701 6.721 118.542 5.88086 119.578 5.88086H156.948C157.984 5.88086 158.824 6.721 158.824 7.75737V18.1972C158.824 19.2336 157.984 20.0737 156.948 20.0737H119.578C118.542 20.0737 117.701 19.2336 117.701 18.1972V7.75737Z" fill="#000E3D"/>
<path d="M93.8552 24.2247C93.8552 23.1883 94.6953 22.3481 95.7317 22.3481H132.01C133.046 22.3481 133.886 23.1883 133.886 24.2247V34.0276C133.886 35.064 133.046 35.9041 132.01 35.9041H95.7317C94.6953 35.9041 93.8552 35.064 93.8552 34.0276V24.2247Z" fill="#E5102E"/>
<path d="M137.535 24.2247C137.535 23.1883 138.375 22.3481 139.411 22.3481H156.948C157.984 22.3481 158.824 23.1883 158.824 24.2247V34.0276C158.824 35.064 157.984 35.9041 156.948 35.9041H139.411C138.375 35.9041 137.535 35.064 137.535 34.0276V24.2247Z" fill="#000E3D"/>
<path d="M117.701 40.6919C117.701 39.6556 118.542 38.8154 119.578 38.8154H156.948C157.984 38.8154 158.824 39.6556 158.824 40.6919V50.222C158.824 51.2583 157.984 52.0985 156.948 52.0985H119.578C118.542 52.0985 117.701 51.2583 117.701 50.222V40.6919Z" fill="#000E3D"/>
<path d="M139.677 7.75737C139.677 6.721 140.518 5.88086 141.554 5.88086H157.783C158.819 5.88086 159.659 6.721 159.659 7.75737V18.1972C159.659 19.2336 158.819 20.0737 157.783 20.0737H141.554C140.518 20.0737 139.677 19.2336 139.677 18.1972V7.75737Z" fill="#000E3D"/>
<path d="M139.678 40.2374C139.678 39.201 140.518 38.3608 141.554 38.3608H157.783C158.82 38.3608 159.66 39.201 159.66 40.2374V50.6772C159.66 51.7135 158.82 52.5537 157.783 52.5537H141.554C140.518 52.5537 139.678 51.7135 139.678 50.6772V40.2374Z" fill="#000E3D"/>
<path d="M163.524 7.75737C163.524 6.721 164.364 5.88086 165.401 5.88086H202.77C203.807 5.88086 204.647 6.721 204.647 7.75737V18.1972C204.647 19.2336 203.807 20.0737 202.77 20.0737H165.401C164.364 20.0737 163.524 19.2336 163.524 18.1972V7.75737Z" fill="#000E3D"/>
<path d="M139.678 24.2247C139.678 23.1883 140.518 22.3481 141.554 22.3481H177.832C178.869 22.3481 179.709 23.1883 179.709 24.2247V34.0276C179.709 35.064 178.869 35.9041 177.832 35.9041H141.554C140.518 35.9041 139.678 35.064 139.678 34.0276V24.2247Z" fill="#E5102E"/>
<path d="M183.358 24.2247C183.358 23.1883 184.198 22.3481 185.234 22.3481H202.77C203.807 22.3481 204.647 23.1883 204.647 24.2247V34.0276C204.647 35.064 203.807 35.9041 202.77 35.9041H185.234C184.198 35.9041 183.358 35.064 183.358 34.0276V24.2247Z" fill="#000E3D"/>
<path d="M163.524 40.6919C163.524 39.6556 164.364 38.8154 165.401 38.8154H202.77C203.807 38.8154 204.647 39.6556 204.647 40.6919V50.222C204.647 51.2583 203.807 52.0985 202.77 52.0985H165.401C164.364 52.0985 163.524 51.2583 163.524 50.222V40.6919Z" fill="#000E3D"/>
<path d="M185.5 7.75737C185.5 6.721 186.34 5.88086 187.377 5.88086H203.605C204.642 5.88086 205.482 6.721 205.482 7.75737V18.1972C205.482 19.2336 204.642 20.0737 203.605 20.0737H187.377C186.34 20.0737 185.5 19.2336 185.5 18.1972V7.75737Z" fill="#000E3D"/>
<path d="M185.5 40.2374C185.5 39.201 186.34 38.3608 187.377 38.3608H203.606C204.642 38.3608 205.482 39.201 205.482 40.2374V50.6772C205.482 51.7135 204.642 52.5537 203.606 52.5537H187.377C186.34 52.5537 185.5 51.7135 185.5 50.6772V40.2374Z" fill="#000E3D"/>
<path d="M209.346 7.75737C209.346 6.721 210.187 5.88086 211.223 5.88086H248.593C249.629 5.88086 250.469 6.721 250.469 7.75737V18.1972C250.469 19.2336 249.629 20.0737 248.593 20.0737H211.223C210.187 20.0737 209.346 19.2336 209.346 18.1972V7.75737Z" fill="#000E3D"/>
<path d="M185.5 24.2247C185.5 23.1883 186.34 22.3481 187.377 22.3481H223.655C224.691 22.3481 225.531 23.1883 225.531 24.2247V34.0276C225.531 35.064 224.691 35.9041 223.655 35.9041H187.377C186.34 35.9041 185.5 35.064 185.5 34.0276V24.2247Z" fill="#E5102E"/>
<path d="M229.18 24.2247C229.18 23.1883 230.02 22.3481 231.057 22.3481H248.593C249.629 22.3481 250.469 23.1883 250.469 24.2247V34.0276C250.469 35.064 249.629 35.9041 248.593 35.9041H231.057C230.02 35.9041 229.18 35.064 229.18 34.0276V24.2247Z" fill="#000E3D"/>
<path d="M209.346 40.6919C209.346 39.6556 210.187 38.8154 211.223 38.8154H248.593C249.629 38.8154 250.469 39.6556 250.469 40.6919V50.222C250.469 51.2583 249.629 52.0985 248.593 52.0985H211.223C210.187 52.0985 209.346 51.2583 209.346 50.222V40.6919Z" fill="#000E3D"/>
<path d="M231.323 7.75737C231.323 6.721 232.163 5.88086 233.199 5.88086H249.428C250.464 5.88086 251.304 6.721 251.304 7.75737V18.1972C251.304 19.2336 250.464 20.0737 249.428 20.0737H233.199C232.163 20.0737 231.323 19.2336 231.323 18.1972V7.75737Z" fill="#000E3D"/>
<path d="M231.323 40.2374C231.323 39.201 232.163 38.3608 233.199 38.3608H249.428C250.464 38.3608 251.305 39.201 251.305 40.2374V50.6772C251.305 51.7135 250.464 52.5537 249.428 52.5537H233.199C232.163 52.5537 231.323 51.7135 231.323 50.6772V40.2374Z" fill="#000E3D"/>
<path d="M255.169 7.75737C255.169 6.721 256.009 5.88086 257.045 5.88086H294.415C295.452 5.88086 296.292 6.721 296.292 7.75737V18.1972C296.292 19.2336 295.452 20.0737 294.415 20.0737H257.045C256.009 20.0737 255.169 19.2336 255.169 18.1972V7.75737Z" fill="#000E3D"/>
<path d="M231.323 24.2247C231.323 23.1883 232.163 22.3481 233.199 22.3481H269.477C270.514 22.3481 271.354 23.1883 271.354 24.2247V34.0276C271.354 35.064 270.514 35.9041 269.477 35.9041H233.199C232.163 35.9041 231.323 35.064 231.323 34.0276V24.2247Z" fill="#E5102E"/>
<path d="M275.002 24.2247C275.002 23.1883 275.843 22.3481 276.879 22.3481H294.415C295.452 22.3481 296.292 23.1883 296.292 24.2247V34.0276C296.292 35.064 295.452 35.9041 294.415 35.9041H276.879C275.843 35.9041 275.002 35.064 275.002 34.0276V24.2247Z" fill="#000E3D"/>
<path d="M255.169 40.6919C255.169 39.6556 256.009 38.8154 257.045 38.8154H294.415C295.452 38.8154 296.292 39.6556 296.292 40.6919V50.222C296.292 51.2583 295.452 52.0985 294.415 52.0985H257.045C256.009 52.0985 255.169 51.2583 255.169 50.222V40.6919Z" fill="#000E3D"/>
<path d="M277.145 7.75737C277.145 6.721 277.985 5.88086 279.022 5.88086H295.25C296.287 5.88086 297.127 6.721 297.127 7.75737V18.1972C297.127 19.2336 296.287 20.0737 295.25 20.0737H279.022C277.985 20.0737 277.145 19.2336 277.145 18.1972V7.75737Z" fill="#000E3D"/>
<path d="M277.145 40.2374C277.145 39.201 277.985 38.3608 279.022 38.3608H295.251C296.287 38.3608 297.127 39.201 297.127 40.2374V50.6772C297.127 51.7135 296.287 52.5537 295.251 52.5537H279.022C277.985 52.5537 277.145 51.7135 277.145 50.6772V40.2374Z" fill="#000E3D"/>
<path d="M300.992 7.75737C300.992 6.721 301.832 5.88086 302.868 5.88086H340.238C341.274 5.88086 342.114 6.721 342.114 7.75737V18.1972C342.114 19.2336 341.274 20.0737 340.238 20.0737H302.868C301.832 20.0737 300.992 19.2336 300.992 18.1972V7.75737Z" fill="#000E3D"/>
<path d="M277.145 24.2247C277.145 23.1883 277.985 22.3481 279.022 22.3481H315.3C316.336 22.3481 317.176 23.1883 317.176 24.2247V34.0276C317.176 35.064 316.336 35.9041 315.3 35.9041H279.022C277.985 35.9041 277.145 35.064 277.145 34.0276V24.2247Z" fill="#E5102E"/>
<path d="M320.825 24.2247C320.825 23.1883 321.665 22.3481 322.702 22.3481H340.238C341.274 22.3481 342.114 23.1883 342.114 24.2247V34.0276C342.114 35.064 341.274 35.9041 340.238 35.9041H322.702C321.665 35.9041 320.825 35.064 320.825 34.0276V24.2247Z" fill="#000E3D"/>
<path d="M300.992 40.6919C300.992 39.6556 301.832 38.8154 302.868 38.8154H340.238C341.274 38.8154 342.114 39.6556 342.114 40.6919V50.222C342.114 51.2583 341.274 52.0985 340.238 52.0985H302.868C301.832 52.0985 300.992 51.2583 300.992 50.222V40.6919Z" fill="#000E3D"/>
<path d="M322.968 7.75737C322.968 6.721 323.808 5.88086 324.844 5.88086H341.073C342.109 5.88086 342.949 6.721 342.949 7.75737V18.1972C342.949 19.2336 342.109 20.0737 341.073 20.0737H324.844C323.808 20.0737 322.968 19.2336 322.968 18.1972V7.75737Z" fill="#000E3D"/>
<path d="M322.968 40.2374C322.968 39.201 323.808 38.3608 324.844 38.3608H341.073C342.11 38.3608 342.95 39.201 342.95 40.2374V50.6772C342.95 51.7135 342.11 52.5537 341.073 52.5537H324.844C323.808 52.5537 322.968 51.7135 322.968 50.6772V40.2374Z" fill="#000E3D"/>
<path d="M346.814 7.75737C346.814 6.721 347.654 5.88086 348.691 5.88086H386.06C387.097 5.88086 387.937 6.721 387.937 7.75737V18.1972C387.937 19.2336 387.097 20.0737 386.06 20.0737H348.691C347.654 20.0737 346.814 19.2336 346.814 18.1972V7.75737Z" fill="#000E3D"/>
<path d="M322.968 24.2247C322.968 23.1883 323.808 22.3481 324.844 22.3481H361.122C362.159 22.3481 362.999 23.1883 362.999 24.2247V34.0276C362.999 35.064 362.159 35.9041 361.122 35.9041H324.844C323.808 35.9041 322.968 35.064 322.968 34.0276V24.2247Z" fill="#E5102E"/>
<path d="M366.648 24.2247C366.648 23.1883 367.488 22.3481 368.524 22.3481H386.06C387.097 22.3481 387.937 23.1883 387.937 24.2247V34.0276C387.937 35.064 387.097 35.9041 386.06 35.9041H368.524C367.488 35.9041 366.648 35.064 366.648 34.0276V24.2247Z" fill="#000E3D"/>
<path d="M346.814 40.6919C346.814 39.6556 347.654 38.8154 348.691 38.8154H386.06C387.097 38.8154 387.937 39.6556 387.937 40.6919V50.222C387.937 51.2583 387.097 52.0985 386.06 52.0985H348.691C347.654 52.0985 346.814 51.2583 346.814 50.222V40.6919Z" fill="#000E3D"/>
<path d="M2.20993 56.6978C2.20993 55.6614 3.05007 54.8213 4.08644 54.8213H20.3154C21.3517 54.8213 22.1919 55.6614 22.1919 56.6978V67.1376C22.1919 68.174 21.3517 69.0141 20.3154 69.0141H4.08644C3.05007 69.0141 2.20993 68.174 2.20993 67.1376V56.6978Z" fill="#000E3D"/>
<path d="M2.21014 89.1778C2.21014 88.1414 3.05029 87.3013 4.08666 87.3013H20.3156C21.3519 87.3013 22.1921 88.1414 22.1921 89.1778V99.6176C22.1921 100.654 21.3519 101.494 20.3156 101.494H4.08665C3.05029 101.494 2.21014 100.654 2.21014 99.6176V89.1778Z" fill="#000E3D"/>
<path d="M26.0564 56.6978C26.0564 55.6614 26.8966 54.8213 27.9329 54.8213H65.3028C66.3391 54.8213 67.1793 55.6614 67.1793 56.6978V67.1376C67.1793 68.174 66.3391 69.0141 65.3028 69.0141H27.9329C26.8966 69.0141 26.0564 68.174 26.0564 67.1376V56.6978Z" fill="#000E3D"/>
<path d="M2.21014 73.1651C2.21014 72.1287 3.05029 71.2886 4.08666 71.2886H40.3647C41.4011 71.2886 42.2412 72.1287 42.2412 73.1651V82.9681C42.2412 84.0044 41.4011 84.8446 40.3647 84.8446H4.08665C3.05029 84.8446 2.21014 84.0044 2.21014 82.9681V73.1651Z" fill="#E5102E"/>
<path d="M45.8899 73.1651C45.8899 72.1287 46.7301 71.2886 47.7664 71.2886H65.3027C66.3391 71.2886 67.1792 72.1287 67.1792 73.1651V82.9681C67.1792 84.0044 66.3391 84.8446 65.3027 84.8446H47.7664C46.7301 84.8446 45.8899 84.0044 45.8899 82.9681V73.1651Z" fill="#000E3D"/>
<path d="M26.0564 89.6324C26.0564 88.596 26.8966 87.7559 27.9329 87.7559H65.3028C66.3391 87.7559 67.1793 88.596 67.1793 89.6324V99.1624C67.1793 100.199 66.3391 101.039 65.3028 101.039H27.9329C26.8966 101.039 26.0564 100.199 26.0564 99.1624V89.6324Z" fill="#000E3D"/>
<path d="M48.0324 56.6978C48.0324 55.6614 48.8726 54.8213 49.909 54.8213H66.1379C67.1742 54.8213 68.0144 55.6614 68.0144 56.6978V67.1376C68.0144 68.174 67.1742 69.0141 66.1379 69.0141H49.909C48.8726 69.0141 48.0324 68.174 48.0324 67.1376V56.6978Z" fill="#000E3D"/>
<path d="M48.0326 89.1778C48.0326 88.1414 48.8728 87.3013 49.9091 87.3013H66.138C67.1744 87.3013 68.0146 88.1414 68.0146 89.1778V99.6176C68.0146 100.654 67.1744 101.494 66.138 101.494H49.9091C48.8728 101.494 48.0326 100.654 48.0326 99.6176V89.1778Z" fill="#000E3D"/>
<path d="M71.8789 56.6978C71.8789 55.6614 72.719 54.8213 73.7554 54.8213H111.125C112.162 54.8213 113.002 55.6614 113.002 56.6978V67.1376C113.002 68.174 112.162 69.0141 111.125 69.0141H73.7554C72.719 69.0141 71.8789 68.174 71.8789 67.1376V56.6978Z" fill="#000E3D"/>
<path d="M48.0326 73.1651C48.0326 72.1287 48.8728 71.2886 49.9091 71.2886H86.1872C87.2236 71.2886 88.0637 72.1287 88.0637 73.1651V82.9681C88.0637 84.0044 87.2236 84.8446 86.1872 84.8446H49.9091C48.8728 84.8446 48.0326 84.0044 48.0326 82.9681V73.1651Z" fill="#E5102E"/>
<path d="M91.7124 73.1651C91.7124 72.1287 92.5525 71.2886 93.5889 71.2886H111.125C112.162 71.2886 113.002 72.1287 113.002 73.1651V82.9681C113.002 84.0044 112.162 84.8446 111.125 84.8446H93.5889C92.5525 84.8446 91.7124 84.0044 91.7124 82.9681V73.1651Z" fill="#000E3D"/>
<path d="M71.8789 89.6324C71.8789 88.596 72.719 87.7559 73.7554 87.7559H111.125C112.162 87.7559 113.002 88.596 113.002 89.6324V99.1624C113.002 100.199 112.162 101.039 111.125 101.039H73.7554C72.719 101.039 71.8789 100.199 71.8789 99.1624V89.6324Z" fill="#000E3D"/>
<path d="M93.855 56.6978C93.855 55.6614 94.6951 54.8213 95.7315 54.8213H111.96C112.997 54.8213 113.837 55.6614 113.837 56.6978V67.1376C113.837 68.174 112.997 69.0141 111.96 69.0141H95.7315C94.6951 69.0141 93.855 68.174 93.855 67.1376V56.6978Z" fill="#000E3D"/>
<path d="M93.8552 89.1778C93.8552 88.1414 94.6953 87.3013 95.7317 87.3013H111.961C112.997 87.3013 113.837 88.1414 113.837 89.1778V99.6176C113.837 100.654 112.997 101.494 111.961 101.494H95.7317C94.6953 101.494 93.8552 100.654 93.8552 99.6176V89.1778Z" fill="#000E3D"/>
<path d="M117.701 56.6978C117.701 55.6614 118.542 54.8213 119.578 54.8213H156.948C157.984 54.8213 158.824 55.6614 158.824 56.6978V67.1376C158.824 68.174 157.984 69.0141 156.948 69.0141H119.578C118.542 69.0141 117.701 68.174 117.701 67.1376V56.6978Z" fill="#000E3D"/>
<path d="M93.8552 73.1651C93.8552 72.1287 94.6953 71.2886 95.7317 71.2886H132.01C133.046 71.2886 133.886 72.1287 133.886 73.1651V82.9681C133.886 84.0044 133.046 84.8446 132.01 84.8446H95.7317C94.6953 84.8446 93.8552 84.0044 93.8552 82.9681V73.1651Z" fill="#E5102E"/>
<path d="M137.535 73.1651C137.535 72.1287 138.375 71.2886 139.411 71.2886H156.948C157.984 71.2886 158.824 72.1287 158.824 73.1651V82.9681C158.824 84.0044 157.984 84.8446 156.948 84.8446H139.411C138.375 84.8446 137.535 84.0044 137.535 82.9681V73.1651Z" fill="#000E3D"/>
<path d="M117.701 89.6324C117.701 88.596 118.542 87.7559 119.578 87.7559H156.948C157.984 87.7559 158.824 88.596 158.824 89.6324V99.1624C158.824 100.199 157.984 101.039 156.948 101.039H119.578C118.542 101.039 117.701 100.199 117.701 99.1624V89.6324Z" fill="#000E3D"/>
<path d="M139.677 56.6978C139.677 55.6614 140.518 54.8213 141.554 54.8213H157.783C158.819 54.8213 159.659 55.6614 159.659 56.6978V67.1376C159.659 68.174 158.819 69.0141 157.783 69.0141H141.554C140.518 69.0141 139.677 68.174 139.677 67.1376V56.6978Z" fill="#000E3D"/>
<path d="M139.678 89.1778C139.678 88.1414 140.518 87.3013 141.554 87.3013H157.783C158.819 87.3013 159.66 88.1414 159.66 89.1778V99.6176C159.66 100.654 158.819 101.494 157.783 101.494H141.554C140.518 101.494 139.678 100.654 139.678 99.6176V89.1778Z" fill="#000E3D"/>
<path d="M163.524 56.6978C163.524 55.6614 164.364 54.8213 165.4 54.8213H202.77C203.807 54.8213 204.647 55.6614 204.647 56.6978V67.1376C204.647 68.174 203.807 69.0141 202.77 69.0141H165.4C164.364 69.0141 163.524 68.174 163.524 67.1376V56.6978Z" fill="#000E3D"/>
<path d="M139.678 73.1656C139.678 72.1292 140.518 71.2891 141.554 71.2891H177.832C178.869 71.2891 179.709 72.1292 179.709 73.1656V82.9685C179.709 84.0049 178.869 84.845 177.832 84.845H141.554C140.518 84.845 139.678 84.0049 139.678 82.9685V73.1656Z" fill="#E5102E"/>
<path d="M183.357 73.1656C183.357 72.1292 184.198 71.2891 185.234 71.2891H202.77C203.807 71.2891 204.647 72.1292 204.647 73.1656V82.9685C204.647 84.0049 203.807 84.845 202.77 84.845H185.234C184.198 84.845 183.357 84.0049 183.357 82.9685V73.1656Z" fill="#000E3D"/>
<path d="M163.524 89.6324C163.524 88.596 164.364 87.7559 165.4 87.7559H202.77C203.807 87.7559 204.647 88.596 204.647 89.6324V99.1624C204.647 100.199 203.807 101.039 202.77 101.039H165.4C164.364 101.039 163.524 100.199 163.524 99.1624V89.6324Z" fill="#000E3D"/>
<path d="M185.5 56.6978C185.5 55.6614 186.34 54.8213 187.377 54.8213H203.605C204.642 54.8213 205.482 55.6614 205.482 56.6978V67.1376C205.482 68.174 204.642 69.0141 203.605 69.0141H187.377C186.34 69.0141 185.5 68.174 185.5 67.1376V56.6978Z" fill="#000E3D"/>
<path d="M185.5 89.1778C185.5 88.1414 186.34 87.3013 187.377 87.3013H203.606C204.642 87.3013 205.482 88.1414 205.482 89.1778V99.6176C205.482 100.654 204.642 101.494 203.606 101.494H187.377C186.34 101.494 185.5 100.654 185.5 99.6176V89.1778Z" fill="#000E3D"/>
<path d="M209.347 56.6978C209.347 55.6614 210.187 54.8213 211.223 54.8213H248.593C249.629 54.8213 250.469 55.6614 250.469 56.6978V67.1376C250.469 68.174 249.629 69.0141 248.593 69.0141H211.223C210.187 69.0141 209.347 68.174 209.347 67.1376V56.6978Z" fill="#000E3D"/>
<path d="M185.5 73.1656C185.5 72.1292 186.34 71.2891 187.377 71.2891H223.655C224.691 71.2891 225.531 72.1292 225.531 73.1656V82.9685C225.531 84.0049 224.691 84.845 223.655 84.845H187.377C186.34 84.845 185.5 84.0049 185.5 82.9685V73.1656Z" fill="#E5102E"/>
<path d="M229.18 73.1656C229.18 72.1292 230.02 71.2891 231.057 71.2891H248.593C249.629 71.2891 250.469 72.1292 250.469 73.1656V82.9685C250.469 84.0049 249.629 84.845 248.593 84.845H231.057C230.02 84.845 229.18 84.0049 229.18 82.9685V73.1656Z" fill="#000E3D"/>
<path d="M209.347 89.6324C209.347 88.596 210.187 87.7559 211.223 87.7559H248.593C249.629 87.7559 250.469 88.596 250.469 89.6324V99.1624C250.469 100.199 249.629 101.039 248.593 101.039H211.223C210.187 101.039 209.347 100.199 209.347 99.1624V89.6324Z" fill="#000E3D"/>
<path d="M231.323 56.6978C231.323 55.6614 232.163 54.8213 233.199 54.8213H249.428C250.464 54.8213 251.304 55.6614 251.304 56.6978V67.1376C251.304 68.174 250.464 69.0141 249.428 69.0141H233.199C232.163 69.0141 231.323 68.174 231.323 67.1376V56.6978Z" fill="#000E3D"/>
<path d="M231.323 89.1778C231.323 88.1414 232.163 87.3013 233.199 87.3013H249.428C250.465 87.3013 251.305 88.1414 251.305 89.1778V99.6176C251.305 100.654 250.464 101.494 249.428 101.494H233.199C232.163 101.494 231.323 100.654 231.323 99.6176V89.1778Z" fill="#000E3D"/>
<path d="M255.169 56.6978C255.169 55.6614 256.009 54.8213 257.046 54.8213H294.415C295.452 54.8213 296.292 55.6614 296.292 56.6978V67.1376C296.292 68.174 295.452 69.0141 294.415 69.0141H257.046C256.009 69.0141 255.169 68.174 255.169 67.1376V56.6978Z" fill="#000E3D"/>
<path d="M231.323 73.1656C231.323 72.1292 232.163 71.2891 233.199 71.2891H269.477C270.514 71.2891 271.354 72.1292 271.354 73.1656V82.9685C271.354 84.0049 270.514 84.845 269.477 84.845H233.199C232.163 84.845 231.323 84.0049 231.323 82.9685V73.1656Z" fill="#E5102E"/>
<path d="M275.003 73.1656C275.003 72.1292 275.843 71.2891 276.879 71.2891H294.415C295.452 71.2891 296.292 72.1292 296.292 73.1656V82.9685C296.292 84.0049 295.452 84.845 294.415 84.845H276.879C275.843 84.845 275.003 84.0049 275.003 82.9685V73.1656Z" fill="#000E3D"/>
<path d="M255.169 89.6324C255.169 88.596 256.009 87.7559 257.046 87.7559H294.415C295.452 87.7559 296.292 88.596 296.292 89.6324V99.1624C296.292 100.199 295.452 101.039 294.415 101.039H257.046C256.009 101.039 255.169 100.199 255.169 99.1624V89.6324Z" fill="#000E3D"/>
<path d="M277.145 56.6978C277.145 55.6614 277.985 54.8213 279.022 54.8213H295.25C296.287 54.8213 297.127 55.6614 297.127 56.6978V67.1376C297.127 68.174 296.287 69.0141 295.25 69.0141H279.022C277.985 69.0141 277.145 68.174 277.145 67.1376V56.6978Z" fill="#000E3D"/>
<path d="M277.145 89.1778C277.145 88.1414 277.985 87.3013 279.022 87.3013H295.251C296.287 87.3013 297.127 88.1414 297.127 89.1778V99.6176C297.127 100.654 296.287 101.494 295.251 101.494H279.022C277.985 101.494 277.145 100.654 277.145 99.6176V89.1778Z" fill="#000E3D"/>
<path d="M300.991 56.6978C300.991 55.6614 301.832 54.8213 302.868 54.8213H340.238C341.274 54.8213 342.114 55.6614 342.114 56.6978V67.1376C342.114 68.174 341.274 69.0141 340.238 69.0141H302.868C301.832 69.0141 300.991 68.174 300.991 67.1376V56.6978Z" fill="#000E3D"/>
<path d="M277.145 73.1656C277.145 72.1292 277.985 71.2891 279.022 71.2891H315.3C316.336 71.2891 317.176 72.1292 317.176 73.1656V82.9685C317.176 84.0049 316.336 84.845 315.3 84.845H279.022C277.985 84.845 277.145 84.0049 277.145 82.9685V73.1656Z" fill="#E5102E"/>
<path d="M320.825 73.1656C320.825 72.1292 321.665 71.2891 322.701 71.2891H340.238C341.274 71.2891 342.114 72.1292 342.114 73.1656V82.9685C342.114 84.0049 341.274 84.845 340.238 84.845H322.701C321.665 84.845 320.825 84.0049 320.825 82.9685V73.1656Z" fill="#000E3D"/>
<path d="M300.991 89.6324C300.991 88.596 301.832 87.7559 302.868 87.7559H340.238C341.274 87.7559 342.114 88.596 342.114 89.6324V99.1624C342.114 100.199 341.274 101.039 340.238 101.039H302.868C301.832 101.039 300.991 100.199 300.991 99.1624V89.6324Z" fill="#000E3D"/>
<path d="M322.968 56.6978C322.968 55.6614 323.808 54.8213 324.844 54.8213H341.073C342.109 54.8213 342.949 55.6614 342.949 56.6978V67.1376C342.949 68.174 342.109 69.0141 341.073 69.0141H324.844C323.808 69.0141 322.968 68.174 322.968 67.1376V56.6978Z" fill="#000E3D"/>
<path d="M322.968 89.1778C322.968 88.1414 323.808 87.3013 324.844 87.3013H341.073C342.11 87.3013 342.95 88.1414 342.95 89.1778V99.6176C342.95 100.654 342.11 101.494 341.073 101.494H324.844C323.808 101.494 322.968 100.654 322.968 99.6176V89.1778Z" fill="#000E3D"/>
<path d="M346.814 56.6978C346.814 55.6614 347.654 54.8213 348.691 54.8213H386.06C387.097 54.8213 387.937 55.6614 387.937 56.6978V67.1376C387.937 68.174 387.097 69.0141 386.06 69.0141H348.691C347.654 69.0141 346.814 68.174 346.814 67.1376V56.6978Z" fill="#000E3D"/>
<path d="M322.968 73.1656C322.968 72.1292 323.808 71.2891 324.844 71.2891H361.122C362.159 71.2891 362.999 72.1292 362.999 73.1656V82.9685C362.999 84.0049 362.159 84.845 361.122 84.845H324.844C323.808 84.845 322.968 84.0049 322.968 82.9685V73.1656Z" fill="#E5102E"/>
<path d="M366.648 73.1656C366.648 72.1292 367.488 71.2891 368.524 71.2891H386.06C387.097 71.2891 387.937 72.1292 387.937 73.1656V82.9685C387.937 84.0049 387.097 84.845 386.06 84.845H368.524C367.488 84.845 366.648 84.0049 366.648 82.9685V73.1656Z" fill="#000E3D"/>
<path d="M346.814 89.6324C346.814 88.596 347.654 87.7559 348.691 87.7559H386.06C387.097 87.7559 387.937 88.596 387.937 89.6324V99.1624C387.937 100.199 387.097 101.039 386.06 101.039H348.691C347.654 101.039 346.814 100.199 346.814 99.1624V89.6324Z" fill="#000E3D"/>
<path d="M2.20993 105.638C2.20993 104.602 3.05007 103.762 4.08644 103.762H20.3154C21.3517 103.762 22.1919 104.602 22.1919 105.638V116.078C22.1919 117.114 21.3517 117.955 20.3154 117.955H4.08644C3.05007 117.955 2.20993 117.114 2.20993 116.078V105.638Z" fill="#000E3D"/>
<path d="M2.21017 138.118C2.21017 137.082 3.05032 136.242 4.08669 136.242H20.3156C21.352 136.242 22.1921 137.082 22.1921 138.118V148.558C22.1921 149.594 21.352 150.435 20.3156 150.435H4.08668C3.05032 150.435 2.21017 149.594 2.21017 148.558V138.118Z" fill="#000E3D"/>
<path d="M26.0565 105.638C26.0565 104.602 26.8966 103.762 27.933 103.762H65.3028C66.3392 103.762 67.1793 104.602 67.1793 105.638V116.078C67.1793 117.114 66.3392 117.955 65.3028 117.955H27.933C26.8966 117.955 26.0565 117.114 26.0565 116.078V105.638Z" fill="#000E3D"/>
<path d="M2.21017 122.106C2.21017 121.07 3.05032 120.229 4.08669 120.229H40.3648C41.4011 120.229 42.2413 121.07 42.2413 122.106V131.909C42.2413 132.945 41.4011 133.785 40.3648 133.785H4.08669C3.05032 133.785 2.21017 132.945 2.21017 131.909V122.106Z" fill="#E5102E"/>
<path d="M45.89 122.106C45.89 121.07 46.7301 120.229 47.7665 120.229H65.3027C66.3391 120.229 67.1792 121.07 67.1792 122.106V131.909C67.1792 132.945 66.3391 133.785 65.3027 133.785H47.7665C46.7301 133.785 45.89 132.945 45.89 131.909V122.106Z" fill="#000E3D"/>
<path d="M26.0565 138.573C26.0565 137.536 26.8966 136.696 27.933 136.696H65.3028C66.3392 136.696 67.1793 137.536 67.1793 138.573V148.103C67.1793 149.139 66.3392 149.979 65.3028 149.979H27.933C26.8966 149.979 26.0565 149.139 26.0565 148.103V138.573Z" fill="#000E3D"/>
<path d="M48.0324 105.638C48.0324 104.602 48.8726 103.762 49.909 103.762H66.1379C67.1742 103.762 68.0144 104.602 68.0144 105.638V116.078C68.0144 117.114 67.1742 117.955 66.1379 117.955H49.909C48.8726 117.955 48.0324 117.114 48.0324 116.078V105.638Z" fill="#000E3D"/>
<path d="M48.0327 138.118C48.0327 137.082 48.8728 136.242 49.9092 136.242H66.1381C67.1744 136.242 68.0146 137.082 68.0146 138.118V148.558C68.0146 149.594 67.1744 150.435 66.1381 150.435H49.9092C48.8728 150.435 48.0327 149.594 48.0327 148.558V138.118Z" fill="#000E3D"/>
<path d="M71.8789 105.638C71.8789 104.602 72.7191 103.762 73.7554 103.762H111.125C112.162 103.762 113.002 104.602 113.002 105.638V116.078C113.002 117.114 112.162 117.955 111.125 117.955H73.7554C72.7191 117.955 71.8789 117.114 71.8789 116.078V105.638Z" fill="#000E3D"/>
<path d="M48.0327 122.106C48.0327 121.07 48.8728 120.229 49.9092 120.229H86.1872C87.2236 120.229 88.0638 121.07 88.0638 122.106V131.909C88.0638 132.945 87.2236 133.785 86.1872 133.785H49.9092C48.8728 133.785 48.0327 132.945 48.0327 131.909V122.106Z" fill="#E5102E"/>
<path d="M91.7124 122.106C91.7124 121.07 92.5526 120.229 93.5889 120.229H111.125C112.162 120.229 113.002 121.07 113.002 122.106V131.909C113.002 132.945 112.162 133.785 111.125 133.785H93.5889C92.5526 133.785 91.7124 132.945 91.7124 131.909V122.106Z" fill="#000E3D"/>
<path d="M71.8789 138.573C71.8789 137.536 72.7191 136.696 73.7554 136.696H111.125C112.162 136.696 113.002 137.536 113.002 138.573V148.103C113.002 149.139 112.162 149.979 111.125 149.979H73.7554C72.7191 149.979 71.8789 149.139 71.8789 148.103V138.573Z" fill="#000E3D"/>
<path d="M93.855 105.638C93.855 104.602 94.6951 103.762 95.7315 103.762H111.96C112.997 103.762 113.837 104.602 113.837 105.638V116.078C113.837 117.114 112.997 117.955 111.96 117.955H95.7315C94.6951 117.955 93.855 117.114 93.855 116.078V105.638Z" fill="#000E3D"/>
<path d="M93.8552 138.118C93.8552 137.082 94.6953 136.242 95.7317 136.242H111.961C112.997 136.242 113.837 137.082 113.837 138.118V148.558C113.837 149.594 112.997 150.435 111.961 150.435H95.7317C94.6953 150.435 93.8552 149.594 93.8552 148.558V138.118Z" fill="#000E3D"/>
<path d="M117.701 105.638C117.701 104.602 118.542 103.762 119.578 103.762H156.948C157.984 103.762 158.824 104.602 158.824 105.638V116.078C158.824 117.114 157.984 117.955 156.948 117.955H119.578C118.542 117.955 117.701 117.114 117.701 116.078V105.638Z" fill="#000E3D"/>
<path d="M93.8552 122.106C93.8552 121.07 94.6953 120.229 95.7317 120.229H132.01C133.046 120.229 133.886 121.07 133.886 122.106V131.909C133.886 132.945 133.046 133.785 132.01 133.785H95.7317C94.6953 133.785 93.8552 132.945 93.8552 131.909V122.106Z" fill="#E5102E"/>
<path d="M137.535 122.106C137.535 121.07 138.375 120.229 139.411 120.229H156.948C157.984 120.229 158.824 121.07 158.824 122.106V131.909C158.824 132.945 157.984 133.785 156.948 133.785H139.411C138.375 133.785 137.535 132.945 137.535 131.909V122.106Z" fill="#000E3D"/>
<path d="M117.701 138.573C117.701 137.536 118.542 136.696 119.578 136.696H156.948C157.984 136.696 158.824 137.536 158.824 138.573V148.103C158.824 149.139 157.984 149.979 156.948 149.979H119.578C118.542 149.979 117.701 149.139 117.701 148.103V138.573Z" fill="#000E3D"/>
<path d="M139.677 105.638C139.677 104.602 140.518 103.762 141.554 103.762H157.783C158.819 103.762 159.659 104.602 159.659 105.638V116.078C159.659 117.114 158.819 117.955 157.783 117.955H141.554C140.518 117.955 139.677 117.114 139.677 116.078V105.638Z" fill="#000E3D"/>
<path d="M139.678 138.118C139.678 137.082 140.518 136.242 141.554 136.242H157.783C158.819 136.242 159.66 137.082 159.66 138.118V148.558C159.66 149.594 158.819 150.435 157.783 150.435H141.554C140.518 150.435 139.678 149.594 139.678 148.558V138.118Z" fill="#000E3D"/>
<path d="M163.524 105.638C163.524 104.602 164.364 103.762 165.4 103.762H202.77C203.807 103.762 204.647 104.602 204.647 105.638V116.078C204.647 117.114 203.807 117.955 202.77 117.955H165.4C164.364 117.955 163.524 117.114 163.524 116.078V105.638Z" fill="#000E3D"/>
<path d="M139.678 122.106C139.678 121.07 140.518 120.229 141.554 120.229H177.832C178.869 120.229 179.709 121.07 179.709 122.106V131.909C179.709 132.945 178.869 133.785 177.832 133.785H141.554C140.518 133.785 139.678 132.945 139.678 131.909V122.106Z" fill="#E5102E"/>
<path d="M183.357 122.106C183.357 121.07 184.198 120.229 185.234 120.229H202.77C203.807 120.229 204.647 121.07 204.647 122.106V131.909C204.647 132.945 203.807 133.785 202.77 133.785H185.234C184.198 133.785 183.357 132.945 183.357 131.909V122.106Z" fill="#000E3D"/>
<path d="M163.524 138.573C163.524 137.536 164.364 136.696 165.4 136.696H202.77C203.807 136.696 204.647 137.536 204.647 138.573V148.103C204.647 149.139 203.807 149.979 202.77 149.979H165.4C164.364 149.979 163.524 149.139 163.524 148.103V138.573Z" fill="#000E3D"/>
<path d="M185.5 105.638C185.5 104.602 186.34 103.762 187.377 103.762H203.605C204.642 103.762 205.482 104.602 205.482 105.638V116.078C205.482 117.114 204.642 117.955 203.605 117.955H187.377C186.34 117.955 185.5 117.114 185.5 116.078V105.638Z" fill="#000E3D"/>
<path d="M185.5 138.118C185.5 137.082 186.34 136.242 187.377 136.242H203.606C204.642 136.242 205.482 137.082 205.482 138.118V148.558C205.482 149.594 204.642 150.435 203.606 150.435H187.377C186.34 150.435 185.5 149.594 185.5 148.558V138.118Z" fill="#000E3D"/>
<path d="M209.346 105.638C209.346 104.602 210.187 103.762 211.223 103.762H248.593C249.629 103.762 250.469 104.602 250.469 105.638V116.078C250.469 117.114 249.629 117.955 248.593 117.955H211.223C210.187 117.955 209.346 117.114 209.346 116.078V105.638Z" fill="#000E3D"/>
<path d="M185.5 122.106C185.5 121.07 186.34 120.229 187.377 120.229H223.655C224.691 120.229 225.531 121.07 225.531 122.106V131.909C225.531 132.945 224.691 133.785 223.655 133.785H187.377C186.34 133.785 185.5 132.945 185.5 131.909V122.106Z" fill="#E5102E"/>
<path d="M229.18 122.106C229.18 121.07 230.02 120.229 231.057 120.229H248.593C249.629 120.229 250.469 121.07 250.469 122.106V131.909C250.469 132.945 249.629 133.785 248.593 133.785H231.057C230.02 133.785 229.18 132.945 229.18 131.909V122.106Z" fill="#000E3D"/>
<path d="M209.346 138.573C209.346 137.536 210.187 136.696 211.223 136.696H248.593C249.629 136.696 250.469 137.536 250.469 138.573V148.103C250.469 149.139 249.629 149.979 248.593 149.979H211.223C210.187 149.979 209.346 149.139 209.346 148.103V138.573Z" fill="#000E3D"/>
<path d="M231.323 105.638C231.323 104.602 232.163 103.762 233.199 103.762H249.428C250.464 103.762 251.304 104.602 251.304 105.638V116.078C251.304 117.114 250.464 117.955 249.428 117.955H233.199C232.163 117.955 231.323 117.114 231.323 116.078V105.638Z" fill="#000E3D"/>
<path d="M231.323 138.118C231.323 137.082 232.163 136.242 233.199 136.242H249.428C250.465 136.242 251.305 137.082 251.305 138.118V148.558C251.305 149.594 250.465 150.435 249.428 150.435H233.199C232.163 150.435 231.323 149.594 231.323 148.558V138.118Z" fill="#000E3D"/>
<path d="M255.169 105.638C255.169 104.602 256.009 103.762 257.046 103.762H294.415C295.452 103.762 296.292 104.602 296.292 105.638V116.078C296.292 117.114 295.452 117.955 294.415 117.955H257.046C256.009 117.955 255.169 117.114 255.169 116.078V105.638Z" fill="#000E3D"/>
<path d="M231.323 122.106C231.323 121.07 232.163 120.229 233.199 120.229H269.477C270.514 120.229 271.354 121.07 271.354 122.106V131.909C271.354 132.945 270.514 133.785 269.477 133.785H233.199C232.163 133.785 231.323 132.945 231.323 131.909V122.106Z" fill="#E5102E"/>
<path d="M275.003 122.106C275.003 121.07 275.843 120.229 276.879 120.229H294.415C295.452 120.229 296.292 121.07 296.292 122.106V131.909C296.292 132.945 295.452 133.785 294.415 133.785H276.879C275.843 133.785 275.003 132.945 275.003 131.909V122.106Z" fill="#000E3D"/>
<path d="M255.169 138.573C255.169 137.536 256.009 136.696 257.046 136.696H294.415C295.452 136.696 296.292 137.536 296.292 138.573V148.103C296.292 149.139 295.452 149.979 294.415 149.979H257.046C256.009 149.979 255.169 149.139 255.169 148.103V138.573Z" fill="#000E3D"/>
<path d="M277.145 105.638C277.145 104.602 277.985 103.762 279.022 103.762H295.25C296.287 103.762 297.127 104.602 297.127 105.638V116.078C297.127 117.114 296.287 117.955 295.25 117.955H279.022C277.985 117.955 277.145 117.114 277.145 116.078V105.638Z" fill="#000E3D"/>
<path d="M277.145 138.118C277.145 137.082 277.985 136.242 279.022 136.242H295.251C296.287 136.242 297.127 137.082 297.127 138.118V148.558C297.127 149.594 296.287 150.435 295.251 150.435H279.022C277.985 150.435 277.145 149.594 277.145 148.558V138.118Z" fill="#000E3D"/>
<path d="M300.992 105.638C300.992 104.602 301.832 103.762 302.868 103.762H340.238C341.274 103.762 342.114 104.602 342.114 105.638V116.078C342.114 117.114 341.274 117.955 340.238 117.955H302.868C301.832 117.955 300.992 117.114 300.992 116.078V105.638Z" fill="#000E3D"/>
<path d="M277.145 122.106C277.145 121.07 277.985 120.229 279.022 120.229H315.3C316.336 120.229 317.176 121.07 317.176 122.106V131.909C317.176 132.945 316.336 133.785 315.3 133.785H279.022C277.985 133.785 277.145 132.945 277.145 131.909V122.106Z" fill="#E5102E"/>
<path d="M320.825 122.106C320.825 121.07 321.665 120.229 322.702 120.229H340.238C341.274 120.229 342.114 121.07 342.114 122.106V131.909C342.114 132.945 341.274 133.785 340.238 133.785H322.702C321.665 133.785 320.825 132.945 320.825 131.909V122.106Z" fill="#000E3D"/>
<path d="M300.992 138.573C300.992 137.536 301.832 136.696 302.868 136.696H340.238C341.274 136.696 342.114 137.536 342.114 138.573V148.103C342.114 149.139 341.274 149.979 340.238 149.979H302.868C301.832 149.979 300.992 149.139 300.992 148.103V138.573Z" fill="#000E3D"/>
<path d="M322.968 105.638C322.968 104.602 323.808 103.762 324.844 103.762H341.073C342.109 103.762 342.949 104.602 342.949 105.638V116.078C342.949 117.114 342.109 117.955 341.073 117.955H324.844C323.808 117.955 322.968 117.114 322.968 116.078V105.638Z" fill="#000E3D"/>
<path d="M322.968 138.118C322.968 137.082 323.808 136.242 324.844 136.242H341.073C342.109 136.242 342.95 137.082 342.95 138.118V148.558C342.95 149.594 342.109 150.435 341.073 150.435H324.844C323.808 150.435 322.968 149.594 322.968 148.558V138.118Z" fill="#000E3D"/>
<path d="M346.814 105.638C346.814 104.602 347.654 103.762 348.69 103.762H386.06C387.097 103.762 387.937 104.602 387.937 105.638V116.078C387.937 117.114 387.097 117.955 386.06 117.955H348.69C347.654 117.955 346.814 117.114 346.814 116.078V105.638Z" fill="#000E3D"/>
<path d="M322.968 122.106C322.968 121.07 323.808 120.229 324.844 120.229H361.122C362.159 120.229 362.999 121.07 362.999 122.106V131.909C362.999 132.945 362.159 133.785 361.122 133.785H324.844C323.808 133.785 322.968 132.945 322.968 131.909V122.106Z" fill="#E5102E"/>
<path d="M366.647 122.106C366.647 121.07 367.488 120.229 368.524 120.229H386.06C387.097 120.229 387.937 121.07 387.937 122.106V131.909C387.937 132.945 387.097 133.785 386.06 133.785H368.524C367.488 133.785 366.647 132.945 366.647 131.909V122.106Z" fill="#000E3D"/>
<path d="M346.814 138.573C346.814 137.536 347.654 136.696 348.69 136.696H386.06C387.097 136.696 387.937 137.536 387.937 138.573V148.103C387.937 149.139 387.097 149.979 386.06 149.979H348.69C347.654 149.979 346.814 149.139 346.814 148.103V138.573Z" fill="#000E3D"/>
<path d="M2.20993 154.579C2.20993 153.542 3.05007 152.702 4.08644 152.702H20.3154C21.3517 152.702 22.1919 153.542 22.1919 154.579V165.018C22.1919 166.055 21.3517 166.895 20.3154 166.895H4.08644C3.05007 166.895 2.20993 166.055 2.20993 165.018V154.579Z" fill="#000E3D"/>
<path d="M2.21014 187.059C2.21014 186.022 3.05029 185.182 4.08666 185.182H20.3156C21.3519 185.182 22.1921 186.022 22.1921 187.059V197.498C22.1921 198.535 21.3519 199.375 20.3156 199.375H4.08665C3.05029 199.375 2.21014 198.535 2.21014 197.498V187.059Z" fill="#000E3D"/>
<path d="M26.0564 154.579C26.0564 153.542 26.8966 152.702 27.9329 152.702H65.3028C66.3391 152.702 67.1793 153.542 67.1793 154.579V165.018C67.1793 166.055 66.3391 166.895 65.3028 166.895H27.9329C26.8966 166.895 26.0564 166.055 26.0564 165.018V154.579Z" fill="#000E3D"/>
<path d="M2.21014 171.046C2.21014 170.01 3.05029 169.17 4.08666 169.17H40.3647C41.4011 169.17 42.2412 170.01 42.2412 171.046V180.849C42.2412 181.886 41.4011 182.726 40.3647 182.726H4.08665C3.05029 182.726 2.21014 181.886 2.21014 180.849V171.046Z" fill="#E5102E"/>
<path d="M45.8899 171.046C45.8899 170.01 46.7301 169.17 47.7664 169.17H65.3027C66.3391 169.17 67.1792 170.01 67.1792 171.046V180.849C67.1792 181.886 66.3391 182.726 65.3027 182.726H47.7664C46.7301 182.726 45.8899 181.886 45.8899 180.849V171.046Z" fill="#000E3D"/>
<path d="M26.0564 187.513C26.0564 186.477 26.8966 185.637 27.9329 185.637H65.3028C66.3391 185.637 67.1793 186.477 67.1793 187.513V197.043C67.1793 198.08 66.3391 198.92 65.3028 198.92H27.9329C26.8966 198.92 26.0564 198.08 26.0564 197.043V187.513Z" fill="#000E3D"/>
<path d="M48.0324 154.579C48.0324 153.542 48.8726 152.702 49.909 152.702H66.1379C67.1742 152.702 68.0144 153.542 68.0144 154.579V165.018C68.0144 166.055 67.1742 166.895 66.1379 166.895H49.909C48.8726 166.895 48.0324 166.055 48.0324 165.018V154.579Z" fill="#000E3D"/>
<path d="M48.0327 187.059C48.0327 186.022 48.8728 185.182 49.9092 185.182H66.1381C67.1745 185.182 68.0146 186.022 68.0146 187.059V197.498C68.0146 198.535 67.1745 199.375 66.1381 199.375H49.9092C48.8728 199.375 48.0327 198.535 48.0327 197.498V187.059Z" fill="#000E3D"/>
<path d="M71.879 154.579C71.879 153.542 72.7191 152.702 73.7555 152.702H111.125C112.162 152.702 113.002 153.542 113.002 154.579V165.018C113.002 166.055 112.162 166.895 111.125 166.895H73.7555C72.7191 166.895 71.879 166.055 71.879 165.018V154.579Z" fill="#000E3D"/>
<path d="M48.0327 171.046C48.0327 170.01 48.8728 169.17 49.9092 169.17H86.1873C87.2236 169.17 88.0638 170.01 88.0638 171.046V180.849C88.0638 181.886 87.2236 182.726 86.1873 182.726H49.9092C48.8728 182.726 48.0327 181.886 48.0327 180.849V171.046Z" fill="#E5102E"/>
<path d="M91.7125 171.046C91.7125 170.01 92.5526 169.17 93.589 169.17H111.125C112.162 169.17 113.002 170.01 113.002 171.046V180.849C113.002 181.886 112.162 182.726 111.125 182.726H93.589C92.5526 182.726 91.7125 181.886 91.7125 180.849V171.046Z" fill="#000E3D"/>
<path d="M71.879 187.513C71.879 186.477 72.7191 185.637 73.7555 185.637H111.125C112.162 185.637 113.002 186.477 113.002 187.513V197.043C113.002 198.08 112.162 198.92 111.125 198.92H73.7555C72.7191 198.92 71.879 198.08 71.879 197.043V187.513Z" fill="#000E3D"/>
<path d="M93.855 154.579C93.855 153.542 94.6951 152.702 95.7315 152.702H111.96C112.997 152.702 113.837 153.542 113.837 154.579V165.018C113.837 166.055 112.997 166.895 111.96 166.895H95.7315C94.6951 166.895 93.855 166.055 93.855 165.018V154.579Z" fill="#000E3D"/>
<path d="M93.8552 187.059C93.8552 186.022 94.6953 185.182 95.7317 185.182H111.961C112.997 185.182 113.837 186.022 113.837 187.059V197.498C113.837 198.535 112.997 199.375 111.961 199.375H95.7317C94.6953 199.375 93.8552 198.535 93.8552 197.498V187.059Z" fill="#000E3D"/>
<path d="M117.701 154.579C117.701 153.542 118.542 152.702 119.578 152.702H156.948C157.984 152.702 158.824 153.542 158.824 154.579V165.018C158.824 166.055 157.984 166.895 156.948 166.895H119.578C118.542 166.895 117.701 166.055 117.701 165.018V154.579Z" fill="#000E3D"/>
<path d="M93.8552 171.046C93.8552 170.01 94.6953 169.17 95.7317 169.17H132.01C133.046 169.17 133.886 170.01 133.886 171.046V180.849C133.886 181.886 133.046 182.726 132.01 182.726H95.7317C94.6953 182.726 93.8552 181.886 93.8552 180.849V171.046Z" fill="#E5102E"/>
<path d="M137.535 171.046C137.535 170.01 138.375 169.17 139.411 169.17H156.948C157.984 169.17 158.824 170.01 158.824 171.046V180.849C158.824 181.886 157.984 182.726 156.948 182.726H139.411C138.375 182.726 137.535 181.886 137.535 180.849V171.046Z" fill="#000E3D"/>
<path d="M117.701 187.513C117.701 186.477 118.542 185.637 119.578 185.637H156.948C157.984 185.637 158.824 186.477 158.824 187.513V197.043C158.824 198.08 157.984 198.92 156.948 198.92H119.578C118.542 198.92 117.701 198.08 117.701 197.043V187.513Z" fill="#000E3D"/>
<path d="M139.677 154.579C139.677 153.542 140.518 152.702 141.554 152.702H157.783C158.819 152.702 159.659 153.542 159.659 154.579V165.018C159.659 166.055 158.819 166.895 157.783 166.895H141.554C140.518 166.895 139.677 166.055 139.677 165.018V154.579Z" fill="#000E3D"/>
<path d="M139.678 187.059C139.678 186.022 140.518 185.182 141.554 185.182H157.783C158.819 185.182 159.66 186.022 159.66 187.059V197.498C159.66 198.535 158.819 199.375 157.783 199.375H141.554C140.518 199.375 139.678 198.535 139.678 197.498V187.059Z" fill="#000E3D"/>
<path d="M163.524 154.579C163.524 153.542 164.364 152.702 165.4 152.702H202.77C203.807 152.702 204.647 153.542 204.647 154.579V165.018C204.647 166.055 203.807 166.895 202.77 166.895H165.4C164.364 166.895 163.524 166.055 163.524 165.018V154.579Z" fill="#000E3D"/>
<path d="M139.678 171.046C139.678 170.01 140.518 169.17 141.554 169.17H177.832C178.869 169.17 179.709 170.01 179.709 171.046V180.849C179.709 181.886 178.869 182.726 177.832 182.726H141.554C140.518 182.726 139.678 181.886 139.678 180.849V171.046Z" fill="#E5102E"/>
<path d="M183.357 171.046C183.357 170.01 184.198 169.17 185.234 169.17H202.77C203.807 169.17 204.647 170.01 204.647 171.046V180.849C204.647 181.886 203.807 182.726 202.77 182.726H185.234C184.198 182.726 183.357 181.886 183.357 180.849V171.046Z" fill="#000E3D"/>
<path d="M163.524 187.513C163.524 186.477 164.364 185.637 165.4 185.637H202.77C203.807 185.637 204.647 186.477 204.647 187.513V197.043C204.647 198.08 203.807 198.92 202.77 198.92H165.4C164.364 198.92 163.524 198.08 163.524 197.043V187.513Z" fill="#000E3D"/>
<path d="M185.5 154.579C185.5 153.542 186.34 152.702 187.377 152.702H203.605C204.642 152.702 205.482 153.542 205.482 154.579V165.018C205.482 166.055 204.642 166.895 203.605 166.895H187.377C186.34 166.895 185.5 166.055 185.5 165.018V154.579Z" fill="#000E3D"/>
<path d="M185.5 187.059C185.5 186.022 186.34 185.182 187.377 185.182H203.606C204.642 185.182 205.482 186.022 205.482 187.059V197.498C205.482 198.535 204.642 199.375 203.606 199.375H187.377C186.34 199.375 185.5 198.535 185.5 197.498V187.059Z" fill="#000E3D"/>
<path d="M209.346 154.579C209.346 153.542 210.187 152.702 211.223 152.702H248.593C249.629 152.702 250.469 153.542 250.469 154.579V165.018C250.469 166.055 249.629 166.895 248.593 166.895H211.223C210.187 166.895 209.346 166.055 209.346 165.018V154.579Z" fill="#000E3D"/>
<path d="M185.5 171.046C185.5 170.01 186.34 169.17 187.377 169.17H223.655C224.691 169.17 225.531 170.01 225.531 171.046V180.849C225.531 181.886 224.691 182.726 223.655 182.726H187.377C186.34 182.726 185.5 181.886 185.5 180.849V171.046Z" fill="#E5102E"/>
<path d="M229.18 171.046C229.18 170.01 230.02 169.17 231.056 169.17H248.593C249.629 169.17 250.469 170.01 250.469 171.046V180.849C250.469 181.886 249.629 182.726 248.593 182.726H231.056C230.02 182.726 229.18 181.886 229.18 180.849V171.046Z" fill="#000E3D"/>
<path d="M209.346 187.513C209.346 186.477 210.187 185.637 211.223 185.637H248.593C249.629 185.637 250.469 186.477 250.469 187.513V197.043C250.469 198.08 249.629 198.92 248.593 198.92H211.223C210.187 198.92 209.346 198.08 209.346 197.043V187.513Z" fill="#000E3D"/>
<path d="M231.323 154.579C231.323 153.542 232.163 152.702 233.199 152.702H249.428C250.464 152.702 251.304 153.542 251.304 154.579V165.018C251.304 166.055 250.464 166.895 249.428 166.895H233.199C232.163 166.895 231.323 166.055 231.323 165.018V154.579Z" fill="#000E3D"/>
<path d="M231.323 187.059C231.323 186.022 232.163 185.182 233.199 185.182H249.428C250.465 185.182 251.305 186.022 251.305 187.059V197.498C251.305 198.535 250.464 199.375 249.428 199.375H233.199C232.163 199.375 231.323 198.535 231.323 197.498V187.059Z" fill="#000E3D"/>
<path d="M255.169 154.579C255.169 153.542 256.009 152.702 257.046 152.702H294.415C295.452 152.702 296.292 153.542 296.292 154.579V165.018C296.292 166.055 295.452 166.895 294.415 166.895H257.046C256.009 166.895 255.169 166.055 255.169 165.018V154.579Z" fill="#000E3D"/>
<path d="M231.323 171.046C231.323 170.01 232.163 169.17 233.199 169.17H269.477C270.514 169.17 271.354 170.01 271.354 171.046V180.849C271.354 181.886 270.514 182.726 269.477 182.726H233.199C232.163 182.726 231.323 181.886 231.323 180.849V171.046Z" fill="#E5102E"/>
<path d="M275.003 171.046C275.003 170.01 275.843 169.17 276.879 169.17H294.415C295.452 169.17 296.292 170.01 296.292 171.046V180.849C296.292 181.886 295.452 182.726 294.415 182.726H276.879C275.843 182.726 275.003 181.886 275.003 180.849V171.046Z" fill="#000E3D"/>
<path d="M255.169 187.513C255.169 186.477 256.009 185.637 257.046 185.637H294.415C295.452 185.637 296.292 186.477 296.292 187.513V197.043C296.292 198.08 295.452 198.92 294.415 198.92H257.046C256.009 198.92 255.169 198.08 255.169 197.043V187.513Z" fill="#000E3D"/>
<path d="M277.145 154.579C277.145 153.542 277.985 152.702 279.022 152.702H295.25C296.287 152.702 297.127 153.542 297.127 154.579V165.018C297.127 166.055 296.287 166.895 295.25 166.895H279.022C277.985 166.895 277.145 166.055 277.145 165.018V154.579Z" fill="#000E3D"/>
<path d="M277.145 187.059C277.145 186.022 277.985 185.182 279.022 185.182H295.251C296.287 185.182 297.127 186.022 297.127 187.059V197.498C297.127 198.535 296.287 199.375 295.251 199.375H279.022C277.985 199.375 277.145 198.535 277.145 197.498V187.059Z" fill="#000E3D"/>
<path d="M300.992 154.579C300.992 153.542 301.832 152.702 302.868 152.702H340.238C341.274 152.702 342.114 153.542 342.114 154.579V165.018C342.114 166.055 341.274 166.895 340.238 166.895H302.868C301.832 166.895 300.992 166.055 300.992 165.018V154.579Z" fill="#000E3D"/>
<path d="M277.145 171.046C277.145 170.01 277.985 169.17 279.022 169.17H315.3C316.336 169.17 317.176 170.01 317.176 171.046V180.849C317.176 181.886 316.336 182.726 315.3 182.726H279.022C277.985 182.726 277.145 181.886 277.145 180.849V171.046Z" fill="#E5102E"/>
<path d="M320.825 171.046C320.825 170.01 321.665 169.17 322.702 169.17H340.238C341.274 169.17 342.114 170.01 342.114 171.046V180.849C342.114 181.886 341.274 182.726 340.238 182.726H322.702C321.665 182.726 320.825 181.886 320.825 180.849V171.046Z" fill="#000E3D"/>
<path d="M300.992 187.513C300.992 186.477 301.832 185.637 302.868 185.637H340.238C341.274 185.637 342.114 186.477 342.114 187.513V197.043C342.114 198.08 341.274 198.92 340.238 198.92H302.868C301.832 198.92 300.992 198.08 300.992 197.043V187.513Z" fill="#000E3D"/>
<path d="M322.968 154.579C322.968 153.542 323.808 152.702 324.844 152.702H341.073C342.109 152.702 342.949 153.542 342.949 154.579V165.018C342.949 166.055 342.109 166.895 341.073 166.895H324.844C323.808 166.895 322.968 166.055 322.968 165.018V154.579Z" fill="#000E3D"/>
<path d="M322.968 187.059C322.968 186.022 323.808 185.182 324.844 185.182H341.073C342.11 185.182 342.95 186.022 342.95 187.059V197.498C342.95 198.535 342.11 199.375 341.073 199.375H324.844C323.808 199.375 322.968 198.535 322.968 197.498V187.059Z" fill="#000E3D"/>
<path d="M346.814 154.579C346.814 153.542 347.654 152.702 348.691 152.702H386.06C387.097 152.702 387.937 153.542 387.937 154.579V165.018C387.937 166.055 387.097 166.895 386.06 166.895H348.691C347.654 166.895 346.814 166.055 346.814 165.018V154.579Z" fill="#000E3D"/>
<path d="M322.968 171.046C322.968 170.01 323.808 169.17 324.844 169.17H361.122C362.159 169.17 362.999 170.01 362.999 171.046V180.849C362.999 181.886 362.159 182.726 361.122 182.726H324.844C323.808 182.726 322.968 181.886 322.968 180.849V171.046Z" fill="#E5102E"/>
<path d="M366.648 171.046C366.648 170.01 367.488 169.17 368.524 169.17H386.06C387.097 169.17 387.937 170.01 387.937 171.046V180.849C387.937 181.886 387.097 182.726 386.06 182.726H368.524C367.488 182.726 366.648 181.886 366.648 180.849V171.046Z" fill="#000E3D"/>
<path d="M346.814 187.513C346.814 186.477 347.654 185.637 348.691 185.637H386.06C387.097 185.637 387.937 186.477 387.937 187.513V197.043C387.937 198.08 387.097 198.92 386.06 198.92H348.691C347.654 198.92 346.814 198.08 346.814 197.043V187.513Z" fill="#000E3D"/>
<path d="M2.20993 203.519C2.20993 202.483 3.05007 201.643 4.08644 201.643H20.3154C21.3517 201.643 22.1919 202.483 22.1919 203.519V213.959C22.1919 214.995 21.3517 215.835 20.3154 215.835H4.08644C3.05007 215.835 2.20993 214.995 2.20993 213.959V203.519Z" fill="#000E3D"/>
<path d="M2.21011 235.999C2.21011 234.963 3.05026 234.123 4.08662 234.123H20.3155C21.3519 234.123 22.192 234.963 22.192 235.999V246.439C22.192 247.475 21.3519 248.315 20.3155 248.315H4.08662C3.05026 248.315 2.21011 247.475 2.21011 246.439V235.999Z" fill="#000E3D"/>
<path d="M26.0564 203.519C26.0564 202.483 26.8965 201.643 27.9329 201.643H65.3027C66.3391 201.643 67.1793 202.483 67.1793 203.519V213.959C67.1793 214.995 66.3391 215.835 65.3027 215.835H27.9329C26.8965 215.835 26.0564 214.995 26.0564 213.959V203.519Z" fill="#000E3D"/>
<path d="M2.21011 219.987C2.21011 218.95 3.05026 218.11 4.08662 218.11H40.3647C41.4011 218.11 42.2412 218.95 42.2412 219.987V229.79C42.2412 230.826 41.4011 231.666 40.3647 231.666H4.08662C3.05026 231.666 2.21011 230.826 2.21011 229.79V219.987Z" fill="#E5102E"/>
<path d="M45.8899 219.987C45.8899 218.95 46.73 218.11 47.7664 218.11H65.3027C66.339 218.11 67.1792 218.95 67.1792 219.987V229.79C67.1792 230.826 66.339 231.666 65.3027 231.666H47.7664C46.73 231.666 45.8899 230.826 45.8899 229.79V219.987Z" fill="#000E3D"/>
<path d="M26.0564 236.454C26.0564 235.417 26.8965 234.577 27.9329 234.577H65.3027C66.3391 234.577 67.1793 235.417 67.1793 236.454V245.984C67.1793 247.02 66.3391 247.86 65.3027 247.86H27.9329C26.8965 247.86 26.0564 247.02 26.0564 245.984V236.454Z" fill="#000E3D"/>
<path d="M48.0324 203.519C48.0324 202.483 48.8726 201.643 49.909 201.643H66.1379C67.1742 201.643 68.0144 202.483 68.0144 203.519V213.959C68.0144 214.995 67.1742 215.835 66.1379 215.835H49.909C48.8726 215.835 48.0324 214.995 48.0324 213.959V203.519Z" fill="#000E3D"/>
<path d="M48.0327 235.999C48.0327 234.963 48.8728 234.123 49.9092 234.123H66.1381C67.1744 234.123 68.0146 234.963 68.0146 235.999V246.439C68.0146 247.475 67.1744 248.315 66.1381 248.315H49.9092C48.8728 248.315 48.0327 247.475 48.0327 246.439V235.999Z" fill="#000E3D"/>
<path d="M71.8789 203.519C71.8789 202.483 72.7191 201.643 73.7554 201.643H111.125C112.162 201.643 113.002 202.483 113.002 203.519V213.959C113.002 214.995 112.162 215.835 111.125 215.835H73.7554C72.7191 215.835 71.8789 214.995 71.8789 213.959V203.519Z" fill="#000E3D"/>
<path d="M48.0327 219.987C48.0327 218.95 48.8728 218.11 49.9092 218.11H86.1872C87.2236 218.11 88.0638 218.95 88.0638 219.987V229.79C88.0638 230.826 87.2236 231.666 86.1872 231.666H49.9092C48.8728 231.666 48.0327 230.826 48.0327 229.79V219.987Z" fill="#E5102E"/>
<path d="M91.7124 219.987C91.7124 218.95 92.5526 218.11 93.5889 218.11H111.125C112.162 218.11 113.002 218.95 113.002 219.987V229.79C113.002 230.826 112.162 231.666 111.125 231.666H93.5889C92.5526 231.666 91.7124 230.826 91.7124 229.79V219.987Z" fill="#000E3D"/>
<path d="M71.8789 236.454C71.8789 235.417 72.7191 234.577 73.7554 234.577H111.125C112.162 234.577 113.002 235.417 113.002 236.454V245.984C113.002 247.02 112.162 247.86 111.125 247.86H73.7554C72.7191 247.86 71.8789 247.02 71.8789 245.984V236.454Z" fill="#000E3D"/>
<path d="M93.855 203.519C93.855 202.483 94.6951 201.643 95.7315 201.643H111.96C112.997 201.643 113.837 202.483 113.837 203.519V213.959C113.837 214.995 112.997 215.835 111.96 215.835H95.7315C94.6951 215.835 93.855 214.995 93.855 213.959V203.519Z" fill="#000E3D"/>
<path d="M93.8552 235.999C93.8552 234.963 94.6954 234.123 95.7317 234.123H111.961C112.997 234.123 113.837 234.963 113.837 235.999V246.439C113.837 247.475 112.997 248.315 111.961 248.315H95.7317C94.6954 248.315 93.8552 247.475 93.8552 246.439V235.999Z" fill="#000E3D"/>
<path d="M117.702 203.519C117.702 202.483 118.542 201.643 119.578 201.643H156.948C157.984 201.643 158.824 202.483 158.824 203.519V213.959C158.824 214.995 157.984 215.835 156.948 215.835H119.578C118.542 215.835 117.702 214.995 117.702 213.959V203.519Z" fill="#000E3D"/>
<path d="M93.8552 219.987C93.8552 218.95 94.6954 218.11 95.7317 218.11H132.01C133.046 218.11 133.886 218.95 133.886 219.987V229.79C133.886 230.826 133.046 231.666 132.01 231.666H95.7317C94.6954 231.666 93.8552 230.826 93.8552 229.79V219.987Z" fill="#E5102E"/>
<path d="M137.535 219.987C137.535 218.95 138.375 218.11 139.412 218.11H156.948C157.984 218.11 158.824 218.95 158.824 219.987V229.79C158.824 230.826 157.984 231.666 156.948 231.666H139.412C138.375 231.666 137.535 230.826 137.535 229.79V219.987Z" fill="#000E3D"/>
<path d="M117.702 236.454C117.702 235.417 118.542 234.577 119.578 234.577H156.948C157.984 234.577 158.824 235.417 158.824 236.454V245.984C158.824 247.02 157.984 247.86 156.948 247.86H119.578C118.542 247.86 117.702 247.02 117.702 245.984V236.454Z" fill="#000E3D"/>
<path d="M139.677 203.519C139.677 202.483 140.518 201.643 141.554 201.643H157.783C158.819 201.643 159.659 202.483 159.659 203.519V213.959C159.659 214.995 158.819 215.835 157.783 215.835H141.554C140.518 215.835 139.677 214.995 139.677 213.959V203.519Z" fill="#000E3D"/>
<path d="M139.678 235.999C139.678 234.963 140.518 234.123 141.554 234.123H157.783C158.819 234.123 159.66 234.963 159.66 235.999V246.439C159.66 247.475 158.819 248.315 157.783 248.315H141.554C140.518 248.315 139.678 247.475 139.678 246.439V235.999Z" fill="#000E3D"/>
<path d="M163.524 203.519C163.524 202.483 164.364 201.643 165.4 201.643H202.77C203.807 201.643 204.647 202.483 204.647 203.519V213.959C204.647 214.995 203.807 215.835 202.77 215.835H165.4C164.364 215.835 163.524 214.995 163.524 213.959V203.519Z" fill="#000E3D"/>
<path d="M139.678 219.987C139.678 218.95 140.518 218.11 141.554 218.11H177.832C178.869 218.11 179.709 218.95 179.709 219.987V229.79C179.709 230.826 178.869 231.666 177.832 231.666H141.554C140.518 231.666 139.678 230.826 139.678 229.79V219.987Z" fill="#E5102E"/>
<path d="M183.357 219.987C183.357 218.95 184.198 218.11 185.234 218.11H202.77C203.807 218.11 204.647 218.95 204.647 219.987V229.79C204.647 230.826 203.807 231.666 202.77 231.666H185.234C184.198 231.666 183.357 230.826 183.357 229.79V219.987Z" fill="#000E3D"/>
<path d="M163.524 236.454C163.524 235.417 164.364 234.577 165.4 234.577H202.77C203.807 234.577 204.647 235.417 204.647 236.454V245.984C204.647 247.02 203.807 247.86 202.77 247.86H165.4C164.364 247.86 163.524 247.02 163.524 245.984V236.454Z" fill="#000E3D"/>
<path d="M185.5 203.519C185.5 202.483 186.34 201.643 187.377 201.643H203.605C204.642 201.643 205.482 202.483 205.482 203.519V213.959C205.482 214.995 204.642 215.835 203.605 215.835H187.377C186.34 215.835 185.5 214.995 185.5 213.959V203.519Z" fill="#000E3D"/>
<path d="M185.5 235.999C185.5 234.963 186.34 234.123 187.377 234.123H203.606C204.642 234.123 205.482 234.963 205.482 235.999V246.439C205.482 247.475 204.642 248.315 203.606 248.315H187.377C186.34 248.315 185.5 247.475 185.5 246.439V235.999Z" fill="#000E3D"/>
<path d="M209.346 203.519C209.346 202.483 210.187 201.643 211.223 201.643H248.593C249.629 201.643 250.469 202.483 250.469 203.519V213.959C250.469 214.995 249.629 215.835 248.593 215.835H211.223C210.187 215.835 209.346 214.995 209.346 213.959V203.519Z" fill="#000E3D"/>
<path d="M185.5 219.987C185.5 218.95 186.34 218.11 187.377 218.11H223.655C224.691 218.11 225.531 218.95 225.531 219.987V229.79C225.531 230.826 224.691 231.666 223.655 231.666H187.377C186.34 231.666 185.5 230.826 185.5 229.79V219.987Z" fill="#E5102E"/>
<path d="M229.18 219.987C229.18 218.95 230.02 218.11 231.056 218.11H248.593C249.629 218.11 250.469 218.95 250.469 219.987V229.79C250.469 230.826 249.629 231.666 248.593 231.666H231.056C230.02 231.666 229.18 230.826 229.18 229.79V219.987Z" fill="#000E3D"/>
<path d="M209.346 236.454C209.346 235.417 210.187 234.577 211.223 234.577H248.593C249.629 234.577 250.469 235.417 250.469 236.454V245.984C250.469 247.02 249.629 247.86 248.593 247.86H211.223C210.187 247.86 209.346 247.02 209.346 245.984V236.454Z" fill="#000E3D"/>
<path d="M231.323 203.519C231.323 202.483 232.163 201.643 233.199 201.643H249.428C250.464 201.643 251.304 202.483 251.304 203.519V213.959C251.304 214.995 250.464 215.835 249.428 215.835H233.199C232.163 215.835 231.323 214.995 231.323 213.959V203.519Z" fill="#000E3D"/>
<path d="M231.323 235.999C231.323 234.963 232.163 234.123 233.199 234.123H249.428C250.465 234.123 251.305 234.963 251.305 235.999V246.439C251.305 247.475 250.464 248.315 249.428 248.315H233.199C232.163 248.315 231.323 247.475 231.323 246.439V235.999Z" fill="#000E3D"/>
<path d="M255.169 203.519C255.169 202.483 256.009 201.643 257.046 201.643H294.415C295.452 201.643 296.292 202.483 296.292 203.519V213.959C296.292 214.995 295.452 215.835 294.415 215.835H257.045C256.009 215.835 255.169 214.995 255.169 213.959V203.519Z" fill="#000E3D"/>
<path d="M231.323 219.987C231.323 218.95 232.163 218.11 233.199 218.11H269.477C270.514 218.11 271.354 218.95 271.354 219.987V229.79C271.354 230.826 270.514 231.666 269.477 231.666H233.199C232.163 231.666 231.323 230.826 231.323 229.79V219.987Z" fill="#E5102E"/>
<path d="M275.002 219.987C275.002 218.95 275.843 218.11 276.879 218.11H294.415C295.452 218.11 296.292 218.95 296.292 219.987V229.79C296.292 230.826 295.452 231.666 294.415 231.666H276.879C275.843 231.666 275.002 230.826 275.002 229.79V219.987Z" fill="#000E3D"/>
<path d="M255.169 236.454C255.169 235.417 256.009 234.577 257.046 234.577H294.415C295.452 234.577 296.292 235.417 296.292 236.454V245.984C296.292 247.02 295.452 247.86 294.415 247.86H257.045C256.009 247.86 255.169 247.02 255.169 245.984V236.454Z" fill="#000E3D"/>
<path d="M277.145 203.519C277.145 202.483 277.985 201.643 279.022 201.643H295.25C296.287 201.643 297.127 202.483 297.127 203.519V213.959C297.127 214.995 296.287 215.835 295.25 215.835H279.022C277.985 215.835 277.145 214.995 277.145 213.959V203.519Z" fill="#000E3D"/>
<path d="M277.145 235.999C277.145 234.963 277.985 234.123 279.022 234.123H295.251C296.287 234.123 297.127 234.963 297.127 235.999V246.439C297.127 247.475 296.287 248.315 295.251 248.315H279.022C277.985 248.315 277.145 247.475 277.145 246.439V235.999Z" fill="#000E3D"/>
<path d="M300.992 203.519C300.992 202.483 301.832 201.643 302.868 201.643H340.238C341.274 201.643 342.114 202.483 342.114 203.519V213.959C342.114 214.995 341.274 215.835 340.238 215.835H302.868C301.832 215.835 300.992 214.995 300.992 213.959V203.519Z" fill="#000E3D"/>
<path d="M277.145 219.987C277.145 218.95 277.985 218.11 279.022 218.11H315.3C316.336 218.11 317.176 218.95 317.176 219.987V229.79C317.176 230.826 316.336 231.666 315.3 231.666H279.022C277.985 231.666 277.145 230.826 277.145 229.79V219.987Z" fill="#E5102E"/>
<path d="M320.825 219.987C320.825 218.95 321.665 218.11 322.702 218.11H340.238C341.274 218.11 342.114 218.95 342.114 219.987V229.79C342.114 230.826 341.274 231.666 340.238 231.666H322.702C321.665 231.666 320.825 230.826 320.825 229.79V219.987Z" fill="#000E3D"/>
<path d="M300.992 236.454C300.992 235.417 301.832 234.577 302.868 234.577H340.238C341.274 234.577 342.114 235.417 342.114 236.454V245.984C342.114 247.02 341.274 247.86 340.238 247.86H302.868C301.832 247.86 300.992 247.02 300.992 245.984V236.454Z" fill="#000E3D"/>
<path d="M322.968 203.519C322.968 202.483 323.808 201.643 324.844 201.643H341.073C342.109 201.643 342.949 202.483 342.949 203.519V213.959C342.949 214.995 342.109 215.835 341.073 215.835H324.844C323.808 215.835 322.968 214.995 322.968 213.959V203.519Z" fill="#000E3D"/>
<path d="M322.968 235.999C322.968 234.963 323.808 234.123 324.844 234.123H341.073C342.11 234.123 342.95 234.963 342.95 235.999V246.439C342.95 247.475 342.11 248.315 341.073 248.315H324.844C323.808 248.315 322.968 247.475 322.968 246.439V235.999Z" fill="#000E3D"/>
<path d="M346.814 203.519C346.814 202.483 347.654 201.643 348.691 201.643H386.06C387.097 201.643 387.937 202.483 387.937 203.519V213.959C387.937 214.995 387.097 215.835 386.06 215.835H348.691C347.654 215.835 346.814 214.995 346.814 213.959V203.519Z" fill="#000E3D"/>
<path d="M322.968 219.987C322.968 218.95 323.808 218.11 324.844 218.11H361.122C362.159 218.11 362.999 218.95 362.999 219.987V229.79C362.999 230.826 362.159 231.666 361.122 231.666H324.844C323.808 231.666 322.968 230.826 322.968 229.79V219.987Z" fill="#E5102E"/>
<path d="M366.647 219.987C366.647 218.95 367.488 218.11 368.524 218.11H386.06C387.097 218.11 387.937 218.95 387.937 219.987V229.79C387.937 230.826 387.097 231.666 386.06 231.666H368.524C367.488 231.666 366.647 230.826 366.647 229.79V219.987Z" fill="#000E3D"/>
<path d="M346.814 236.454C346.814 235.417 347.654 234.577 348.691 234.577H386.06C387.097 234.577 387.937 235.417 387.937 236.454V245.984C387.937 247.02 387.097 247.86 386.06 247.86H348.691C347.654 247.86 346.814 247.02 346.814 245.984V236.454Z" fill="#000E3D"/>
<path d="M2.20993 252.46C2.20993 251.423 3.05007 250.583 4.08644 250.583H20.3154C21.3517 250.583 22.1919 251.423 22.1919 252.46V262.899C22.1919 263.936 21.3517 264.776 20.3154 264.776H4.08644C3.05007 264.776 2.20993 263.936 2.20993 262.899V252.46Z" fill="#000E3D"/>
<path d="M2.21014 284.94C2.21014 283.903 3.05029 283.063 4.08666 283.063H20.3156C21.3519 283.063 22.1921 283.903 22.1921 284.939V295.379C22.1921 296.416 21.3519 297.256 20.3156 297.256H4.08665C3.05029 297.256 2.21014 296.416 2.21014 295.379V284.94Z" fill="#000E3D"/>
<path d="M26.0564 252.46C26.0564 251.423 26.8966 250.583 27.9329 250.583H65.3028C66.3391 250.583 67.1793 251.423 67.1793 252.46V262.899C67.1793 263.936 66.3391 264.776 65.3028 264.776H27.9329C26.8966 264.776 26.0564 263.936 26.0564 262.899V252.46Z" fill="#000E3D"/>
<path d="M2.21014 268.927C2.21014 267.891 3.05029 267.051 4.08666 267.051H40.3647C41.4011 267.051 42.2412 267.891 42.2412 268.927V278.73C42.2412 279.767 41.4011 280.607 40.3647 280.607H4.08665C3.05029 280.607 2.21014 279.767 2.21014 278.73V268.927Z" fill="#E5102E"/>
<path d="M45.8899 268.927C45.8899 267.891 46.7301 267.051 47.7664 267.051H65.3027C66.3391 267.051 67.1792 267.891 67.1792 268.927V278.73C67.1792 279.767 66.3391 280.607 65.3027 280.607H47.7664C46.7301 280.607 45.8899 279.767 45.8899 278.73V268.927Z" fill="#000E3D"/>
<path d="M26.0564 285.394C26.0564 284.358 26.8966 283.518 27.9329 283.518H65.3028C66.3391 283.518 67.1793 284.358 67.1793 285.394V294.924C67.1793 295.96 66.3391 296.801 65.3028 296.801H27.9329C26.8966 296.801 26.0564 295.96 26.0564 294.924V285.394Z" fill="#000E3D"/>
<path d="M48.0324 252.46C48.0324 251.423 48.8726 250.583 49.909 250.583H66.1379C67.1742 250.583 68.0144 251.423 68.0144 252.46V262.899C68.0144 263.936 67.1742 264.776 66.1379 264.776H49.909C48.8726 264.776 48.0324 263.936 48.0324 262.899V252.46Z" fill="#000E3D"/>
<path d="M48.0326 284.94C48.0326 283.903 48.8728 283.063 49.9091 283.063H66.138C67.1744 283.063 68.0146 283.903 68.0146 284.939V295.379C68.0146 296.416 67.1744 297.256 66.138 297.256H49.9091C48.8728 297.256 48.0326 296.416 48.0326 295.379V284.94Z" fill="#000E3D"/>
<path d="M71.8789 252.46C71.8789 251.423 72.719 250.583 73.7554 250.583H111.125C112.162 250.583 113.002 251.423 113.002 252.46V262.899C113.002 263.936 112.162 264.776 111.125 264.776H73.7554C72.719 264.776 71.8789 263.936 71.8789 262.899V252.46Z" fill="#000E3D"/>
<path d="M48.0326 268.927C48.0326 267.891 48.8728 267.051 49.9091 267.051H86.1872C87.2236 267.051 88.0637 267.891 88.0637 268.927V278.73C88.0637 279.767 87.2236 280.607 86.1872 280.607H49.9091C48.8728 280.607 48.0326 279.767 48.0326 278.73V268.927Z" fill="#E5102E"/>
<path d="M91.7124 268.927C91.7124 267.891 92.5525 267.051 93.5889 267.051H111.125C112.162 267.051 113.002 267.891 113.002 268.927V278.73C113.002 279.767 112.162 280.607 111.125 280.607H93.5889C92.5525 280.607 91.7124 279.767 91.7124 278.73V268.927Z" fill="#000E3D"/>
<path d="M71.8789 285.394C71.8789 284.358 72.719 283.518 73.7554 283.518H111.125C112.162 283.518 113.002 284.358 113.002 285.394V294.924C113.002 295.96 112.162 296.801 111.125 296.801H73.7554C72.719 296.801 71.8789 295.96 71.8789 294.924V285.394Z" fill="#000E3D"/>
<path d="M93.855 252.46C93.855 251.423 94.6951 250.583 95.7315 250.583H111.96C112.997 250.583 113.837 251.423 113.837 252.46V262.899C113.837 263.936 112.997 264.776 111.96 264.776H95.7315C94.6951 264.776 93.855 263.936 93.855 262.899V252.46Z" fill="#000E3D"/>
<path d="M93.8552 284.94C93.8552 283.903 94.6953 283.063 95.7317 283.063H111.961C112.997 283.063 113.837 283.903 113.837 284.939V295.379C113.837 296.416 112.997 297.256 111.961 297.256H95.7317C94.6953 297.256 93.8552 296.416 93.8552 295.379V284.94Z" fill="#000E3D"/>
<path d="M117.701 252.46C117.701 251.423 118.542 250.583 119.578 250.583H156.948C157.984 250.583 158.824 251.423 158.824 252.46V262.899C158.824 263.936 157.984 264.776 156.948 264.776H119.578C118.542 264.776 117.701 263.936 117.701 262.899V252.46Z" fill="#000E3D"/>
<path d="M93.8552 268.927C93.8552 267.891 94.6953 267.051 95.7317 267.051H132.01C133.046 267.051 133.886 267.891 133.886 268.927V278.73C133.886 279.767 133.046 280.607 132.01 280.607H95.7317C94.6953 280.607 93.8552 279.767 93.8552 278.73V268.927Z" fill="#E5102E"/>
<path d="M137.535 268.927C137.535 267.891 138.375 267.051 139.411 267.051H156.948C157.984 267.051 158.824 267.891 158.824 268.927V278.73C158.824 279.767 157.984 280.607 156.948 280.607H139.411C138.375 280.607 137.535 279.767 137.535 278.73V268.927Z" fill="#000E3D"/>
<path d="M117.701 285.394C117.701 284.358 118.542 283.518 119.578 283.518H156.948C157.984 283.518 158.824 284.358 158.824 285.394V294.924C158.824 295.96 157.984 296.801 156.948 296.801H119.578C118.542 296.801 117.701 295.96 117.701 294.924V285.394Z" fill="#000E3D"/>
<path d="M139.677 252.46C139.677 251.423 140.518 250.583 141.554 250.583H157.783C158.819 250.583 159.659 251.423 159.659 252.46V262.899C159.659 263.936 158.819 264.776 157.783 264.776H141.554C140.518 264.776 139.677 263.936 139.677 262.899V252.46Z" fill="#000E3D"/>
<path d="M139.678 284.94C139.678 283.903 140.518 283.063 141.554 283.063H157.783C158.819 283.063 159.66 283.903 159.66 284.939V295.379C159.66 296.416 158.819 297.256 157.783 297.256H141.554C140.518 297.256 139.678 296.416 139.678 295.379V284.94Z" fill="#000E3D"/>
<path d="M163.524 252.46C163.524 251.423 164.364 250.583 165.4 250.583H202.77C203.807 250.583 204.647 251.423 204.647 252.46V262.899C204.647 263.936 203.807 264.776 202.77 264.776H165.4C164.364 264.776 163.524 263.936 163.524 262.899V252.46Z" fill="#000E3D"/>
<path d="M139.678 268.927C139.678 267.891 140.518 267.051 141.554 267.051H177.832C178.869 267.051 179.709 267.891 179.709 268.927V278.73C179.709 279.767 178.869 280.607 177.832 280.607H141.554C140.518 280.607 139.678 279.767 139.678 278.73V268.927Z" fill="#E5102E"/>
<path d="M183.357 268.927C183.357 267.891 184.198 267.051 185.234 267.051H202.77C203.807 267.051 204.647 267.891 204.647 268.927V278.73C204.647 279.767 203.807 280.607 202.77 280.607H185.234C184.198 280.607 183.357 279.767 183.357 278.73V268.927Z" fill="#000E3D"/>
<path d="M163.524 285.394C163.524 284.358 164.364 283.518 165.4 283.518H202.77C203.807 283.518 204.647 284.358 204.647 285.394V294.924C204.647 295.96 203.807 296.801 202.77 296.801H165.4C164.364 296.801 163.524 295.96 163.524 294.924V285.394Z" fill="#000E3D"/>
<path d="M185.5 252.46C185.5 251.423 186.34 250.583 187.377 250.583H203.605C204.642 250.583 205.482 251.423 205.482 252.46V262.899C205.482 263.936 204.642 264.776 203.605 264.776H187.377C186.34 264.776 185.5 263.936 185.5 262.899V252.46Z" fill="#000E3D"/>
<path d="M185.5 284.94C185.5 283.903 186.34 283.063 187.377 283.063H203.606C204.642 283.063 205.482 283.903 205.482 284.939V295.379C205.482 296.416 204.642 297.256 203.606 297.256H187.377C186.34 297.256 185.5 296.416 185.5 295.379V284.94Z" fill="#000E3D"/>
<path d="M209.346 252.46C209.346 251.423 210.187 250.583 211.223 250.583H248.593C249.629 250.583 250.469 251.423 250.469 252.46V262.899C250.469 263.936 249.629 264.776 248.593 264.776H211.223C210.187 264.776 209.346 263.936 209.346 262.899V252.46Z" fill="#000E3D"/>
<path d="M185.5 268.927C185.5 267.891 186.34 267.051 187.377 267.051H223.655C224.691 267.051 225.531 267.891 225.531 268.927V278.73C225.531 279.767 224.691 280.607 223.655 280.607H187.377C186.34 280.607 185.5 279.767 185.5 278.73V268.927Z" fill="#E5102E"/>
<path d="M229.18 268.927C229.18 267.891 230.02 267.051 231.057 267.051H248.593C249.629 267.051 250.469 267.891 250.469 268.927V278.73C250.469 279.767 249.629 280.607 248.593 280.607H231.057C230.02 280.607 229.18 279.767 229.18 278.73V268.927Z" fill="#000E3D"/>
<path d="M209.346 285.394C209.346 284.358 210.187 283.518 211.223 283.518H248.593C249.629 283.518 250.469 284.358 250.469 285.394V294.924C250.469 295.96 249.629 296.801 248.593 296.801H211.223C210.187 296.801 209.346 295.96 209.346 294.924V285.394Z" fill="#000E3D"/>
<path d="M231.323 252.46C231.323 251.423 232.163 250.583 233.199 250.583H249.428C250.464 250.583 251.304 251.423 251.304 252.46V262.899C251.304 263.936 250.464 264.776 249.428 264.776H233.199C232.163 264.776 231.323 263.936 231.323 262.899V252.46Z" fill="#000E3D"/>
<path d="M231.323 284.94C231.323 283.903 232.163 283.063 233.199 283.063H249.428C250.465 283.063 251.305 283.903 251.305 284.939V295.379C251.305 296.416 250.465 297.256 249.428 297.256H233.199C232.163 297.256 231.323 296.416 231.323 295.379V284.94Z" fill="#000E3D"/>
<path d="M255.169 252.46C255.169 251.423 256.009 250.583 257.046 250.583H294.415C295.452 250.583 296.292 251.423 296.292 252.46V262.899C296.292 263.936 295.452 264.776 294.415 264.776H257.046C256.009 264.776 255.169 263.936 255.169 262.899V252.46Z" fill="#000E3D"/>
<path d="M231.323 268.927C231.323 267.891 232.163 267.051 233.199 267.051H269.477C270.514 267.051 271.354 267.891 271.354 268.927V278.73C271.354 279.767 270.514 280.607 269.477 280.607H233.199C232.163 280.607 231.323 279.767 231.323 278.73V268.927Z" fill="#E5102E"/>
<path d="M275.003 268.927C275.003 267.891 275.843 267.051 276.879 267.051H294.415C295.452 267.051 296.292 267.891 296.292 268.927V278.73C296.292 279.767 295.452 280.607 294.415 280.607H276.879C275.843 280.607 275.003 279.767 275.003 278.73V268.927Z" fill="#000E3D"/>
<path d="M255.169 285.394C255.169 284.358 256.009 283.518 257.046 283.518H294.415C295.452 283.518 296.292 284.358 296.292 285.394V294.924C296.292 295.96 295.452 296.801 294.415 296.801H257.046C256.009 296.801 255.169 295.96 255.169 294.924V285.394Z" fill="#000E3D"/>
<path d="M277.145 252.46C277.145 251.423 277.985 250.583 279.022 250.583H295.25C296.287 250.583 297.127 251.423 297.127 252.46V262.899C297.127 263.936 296.287 264.776 295.25 264.776H279.022C277.985 264.776 277.145 263.936 277.145 262.899V252.46Z" fill="#000E3D"/>
<path d="M277.145 284.94C277.145 283.903 277.985 283.063 279.022 283.063H295.251C296.287 283.063 297.127 283.903 297.127 284.939V295.379C297.127 296.416 296.287 297.256 295.251 297.256H279.022C277.985 297.256 277.145 296.416 277.145 295.379V284.94Z" fill="#000E3D"/>
<path d="M300.992 252.46C300.992 251.423 301.832 250.583 302.868 250.583H340.238C341.274 250.583 342.114 251.423 342.114 252.46V262.899C342.114 263.936 341.274 264.776 340.238 264.776H302.868C301.832 264.776 300.992 263.936 300.992 262.899V252.46Z" fill="#000E3D"/>
<path d="M277.145 268.927C277.145 267.891 277.985 267.051 279.022 267.051H315.3C316.336 267.051 317.176 267.891 317.176 268.927V278.73C317.176 279.767 316.336 280.607 315.3 280.607H279.022C277.985 280.607 277.145 279.767 277.145 278.73V268.927Z" fill="#E5102E"/>
<path d="M320.825 268.927C320.825 267.891 321.665 267.051 322.702 267.051H340.238C341.274 267.051 342.114 267.891 342.114 268.927V278.73C342.114 279.767 341.274 280.607 340.238 280.607H322.702C321.665 280.607 320.825 279.767 320.825 278.73V268.927Z" fill="#000E3D"/>
<path d="M300.992 285.394C300.992 284.358 301.832 283.518 302.868 283.518H340.238C341.274 283.518 342.114 284.358 342.114 285.394V294.924C342.114 295.96 341.274 296.801 340.238 296.801H302.868C301.832 296.801 300.992 295.96 300.992 294.924V285.394Z" fill="#000E3D"/>
<path d="M322.968 252.46C322.968 251.423 323.808 250.583 324.844 250.583H341.073C342.109 250.583 342.949 251.423 342.949 252.46V262.899C342.949 263.936 342.109 264.776 341.073 264.776H324.844C323.808 264.776 322.968 263.936 322.968 262.899V252.46Z" fill="#000E3D"/>
<path d="M322.968 284.94C322.968 283.903 323.808 283.063 324.844 283.063H341.073C342.11 283.063 342.95 283.903 342.95 284.939V295.379C342.95 296.416 342.11 297.256 341.073 297.256H324.844C323.808 297.256 322.968 296.416 322.968 295.379V284.94Z" fill="#000E3D"/>
<path d="M346.814 252.46C346.814 251.423 347.654 250.583 348.691 250.583H386.06C387.097 250.583 387.937 251.423 387.937 252.46V262.899C387.937 263.936 387.097 264.776 386.06 264.776H348.691C347.654 264.776 346.814 263.936 346.814 262.899V252.46Z" fill="#000E3D"/>
<path d="M322.968 268.927C322.968 267.891 323.808 267.051 324.844 267.051H361.122C362.159 267.051 362.999 267.891 362.999 268.927V278.73C362.999 279.767 362.159 280.607 361.122 280.607H324.844C323.808 280.607 322.968 279.767 322.968 278.73V268.927Z" fill="#E5102E"/>
<path d="M366.648 268.927C366.648 267.891 367.488 267.051 368.524 267.051H386.06C387.097 267.051 387.937 267.891 387.937 268.927V278.73C387.937 279.767 387.097 280.607 386.06 280.607H368.524C367.488 280.607 366.648 279.767 366.648 278.73V268.927Z" fill="#000E3D"/>
<path d="M346.814 285.394C346.814 284.358 347.654 283.518 348.691 283.518H386.06C387.097 283.518 387.937 284.358 387.937 285.394V294.924C387.937 295.96 387.097 296.801 386.06 296.801H348.691C347.654 296.801 346.814 295.96 346.814 294.924V285.394Z" fill="#000E3D"/>
</g>
</svg>
