<svg width="67" height="48" viewBox="0 0 67 48" fill="none" xmlns="http://www.w3.org/2000/svg">
<path d="M0 1.91749C0 0.858492 0.858491 0 1.91749 0H18.5008C19.5598 0 20.4183 0.858491 20.4183 1.91749V12.5853C20.4183 13.6443 19.5598 14.5028 18.5008 14.5028H1.91749C0.85849 14.5028 0 13.6443 0 12.5853V1.91749Z" fill="#000E3D"/>
<path d="M0 35.1067C0 34.0477 0.858491 33.1892 1.91749 33.1892H18.5008C19.5598 33.1892 20.4183 34.0477 20.4183 35.1067V45.7745C20.4183 46.8335 19.5598 47.692 18.5008 47.692H1.91749C0.85849 47.692 0 46.8335 0 45.7745V35.1067Z" fill="#000E3D"/>
<path d="M24.3667 1.91749C24.3667 0.858492 25.2252 0 26.2842 0H64.4702C65.5292 0 66.3877 0.858491 66.3877 1.91749V12.5853C66.3877 13.6443 65.5292 14.5028 64.4702 14.5028H26.2842C25.2252 14.5028 24.3667 13.6443 24.3667 12.5853V1.91749Z" fill="#000E3D"/>
<path d="M0 18.7445C0 17.6855 0.858491 16.827 1.91749 16.827H38.9879C40.0469 16.827 40.9054 17.6855 40.9054 18.7445V28.7616C40.9054 29.8206 40.0469 30.6791 38.9879 30.6791H1.91749C0.858491 30.6791 0 29.8206 0 28.7616V18.7445Z" fill="#E5102E"/>
<path d="M44.6338 18.7445C44.6338 17.6855 45.4923 16.827 46.5513 16.827H64.4705C65.5295 16.827 66.388 17.6855 66.388 18.7445V28.7616C66.388 29.8206 65.5295 30.6791 64.4705 30.6791H46.5513C45.4923 30.6791 44.6338 29.8206 44.6338 28.7616V18.7445Z" fill="#000E3D"/>
<path d="M24.3667 35.5714C24.3667 34.5124 25.2252 33.6539 26.2842 33.6539H64.4702C65.5292 33.6539 66.3877 34.5124 66.3877 35.5714V45.3096C66.3877 46.3686 65.5292 47.2271 64.4702 47.2271H26.2842C25.2252 47.2271 24.3667 46.3686 24.3667 45.3096V35.5714Z" fill="#000E3D"/>
</svg>
