<svg width="40" height="40" viewBox="0 0 40 40" fill="none" xmlns="http://www.w3.org/2000/svg">
<path d="M17.48 28.28L30.17 15.59L27.65 13.07L17.48 23.24L12.35 18.11L9.83 20.63L17.48 28.28ZM20 38C17.51 38 15.17 37.5275 12.98 36.5825C10.79 35.6375 8.885 34.355 7.265 32.735C5.645 31.115 4.3625 29.21 3.4175 27.02C2.4725 24.83 2 22.49 2 20C2 17.51 2.4725 15.17 3.4175 12.98C4.3625 10.79 5.645 8.885 7.265 7.265C8.885 5.645 10.79 4.3625 12.98 3.4175C15.17 2.4725 17.51 2 20 2C22.49 2 24.83 2.4725 27.02 3.4175C29.21 4.3625 31.115 5.645 32.735 7.265C34.355 8.885 35.6375 10.79 36.5825 12.98C37.5275 15.17 38 17.51 38 20C38 22.49 37.5275 24.83 36.5825 27.02C35.6375 29.21 34.355 31.115 32.735 32.735C31.115 34.355 29.21 35.6375 27.02 36.5825C24.83 37.5275 22.49 38 20 38ZM20 34.4C24.02 34.4 27.425 33.005 30.215 30.215C33.005 27.425 34.4 24.02 34.4 20C34.4 15.98 33.005 12.575 30.215 9.785C27.425 6.995 24.02 5.6 20 5.6C15.98 5.6 12.575 6.995 9.785 9.785C6.995 12.575 5.6 15.98 5.6 20C5.6 24.02 6.995 27.425 9.785 30.215C12.575 33.005 15.98 34.4 20 34.4Z" fill="#17723F"/>
</svg>
