<svg width="50" height="36" viewBox="0 0 50 36" fill="none" xmlns="http://www.w3.org/2000/svg">
<path d="M0 1.41957C0 0.635563 0.635562 0 1.41957 0H13.6966C14.4806 0 15.1162 0.635562 15.1162 1.41957V9.31722C15.1162 10.1012 14.4806 10.7368 13.6966 10.7368H1.41957C0.635562 10.7368 0 10.1012 0 9.31723V1.41957Z" fill="#000E3D"/>
<path d="M0 25.9902C0 25.2062 0.635562 24.5707 1.41957 24.5707H13.6966C14.4806 24.5707 15.1162 25.2062 15.1162 25.9902V33.8879C15.1162 34.6719 14.4806 35.3075 13.6966 35.3075H1.41957C0.635562 35.3075 0 34.6719 0 33.8879V25.9902Z" fill="#000E3D"/>
<path d="M18.0394 1.41957C18.0394 0.635563 18.675 0 19.459 0H47.729C48.513 0 49.1486 0.635562 49.1486 1.41957V9.31722C49.1486 10.1012 48.513 10.7368 47.729 10.7368H19.459C18.675 10.7368 18.0394 10.1012 18.0394 9.31723V1.41957Z" fill="#000E3D"/>
<path d="M0 13.877C0 13.093 0.635562 12.4574 1.41957 12.4574H28.8637C29.6477 12.4574 30.2833 13.093 30.2833 13.877V21.2928C30.2833 22.0768 29.6477 22.7124 28.8637 22.7124H1.41957C0.635562 22.7124 0 22.0768 0 21.2928V13.877Z" fill="#E5102E"/>
<path d="M33.0433 13.877C33.0433 13.093 33.6789 12.4574 34.4629 12.4574H47.729C48.513 12.4574 49.1485 13.093 49.1485 13.877V21.2928C49.1485 22.0768 48.513 22.7124 47.729 22.7124H34.4629C33.6789 22.7124 33.0433 22.0768 33.0433 21.2928V13.877Z" fill="#000E3D"/>
<path d="M18.0394 26.3345C18.0394 25.5505 18.675 24.9149 19.459 24.9149H47.729C48.513 24.9149 49.1486 25.5505 49.1486 26.3345V33.5439C49.1486 34.3279 48.513 34.9635 47.729 34.9635H19.459C18.675 34.9635 18.0394 34.3279 18.0394 33.5439V26.3345Z" fill="#000E3D"/>
</svg>
