<svg width="24" height="24" viewBox="0 0 24 24" fill="none" xmlns="http://www.w3.org/2000/svg">
<path d="M17.8754 17.5649C17.4703 17.5658 17.0689 17.4865 16.6946 17.3315C16.3203 17.1765 15.9803 16.949 15.6944 16.6619L12.5444 13.5119C12.4329 13.406 12.285 13.3469 12.1312 13.3469C11.9773 13.3469 11.8294 13.406 11.7179 13.5119L8.55591 16.6739C8.27007 16.9611 7.93015 17.1887 7.55579 17.3437C7.18144 17.4987 6.78008 17.578 6.37491 17.5769H5.75391L9.74391 21.5669C10.9889 22.8119 13.0094 22.8119 14.2544 21.5669L18.2549 17.5649H17.8754ZM6.37491 6.42293C7.19991 6.42293 7.97391 6.74393 8.55591 7.32593L11.7179 10.4879C11.7722 10.5424 11.8368 10.5855 11.9078 10.615C11.9789 10.6445 12.055 10.6596 12.1319 10.6596C12.2088 10.6596 12.285 10.6445 12.356 10.615C12.427 10.5855 12.4916 10.5424 12.5459 10.4879L15.6959 7.33793C15.9816 7.05096 16.3212 6.8234 16.6953 6.66841C17.0694 6.51343 17.4705 6.43407 17.8754 6.43493H18.2549L14.2544 2.43443C13.6561 1.83657 12.8449 1.50073 11.9992 1.50073C11.1534 1.50073 10.3422 1.83657 9.74391 2.43443L5.75391 6.42443L6.37491 6.42293Z" fill="#000E3D"/>
<path d="M21.5655 9.74393L19.1475 7.32593C19.0932 7.34822 19.0352 7.35993 18.9765 7.36043H17.877C17.3085 7.36043 16.752 7.59143 16.3515 7.99343L13.2015 11.1434C13.0614 11.2843 12.8949 11.396 12.7114 11.4723C12.528 11.5485 12.3314 11.5878 12.1327 11.5878C11.9341 11.5878 11.7374 11.5485 11.554 11.4723C11.3706 11.396 11.2041 11.2843 11.064 11.1434L7.90198 7.97993C7.49631 7.57592 6.94752 7.34842 6.37498 7.34693H5.02498C4.96902 7.34649 4.91361 7.33581 4.86148 7.31543L2.43448 9.74393C1.18948 10.9889 1.18948 13.0094 2.43448 14.2559L4.86148 16.6829C4.91303 16.6622 4.96793 16.651 5.02348 16.6499H6.37498C6.94498 16.6499 7.49998 16.4204 7.90198 16.0184L11.0625 12.8549C11.3509 12.5804 11.7338 12.4272 12.132 12.4272C12.5302 12.4272 12.9131 12.5804 13.2015 12.8549L16.3515 16.0049C16.752 16.4069 17.3085 16.6364 17.877 16.6364H18.9765C19.0365 16.6364 19.095 16.6514 19.1475 16.6724L21.5655 14.2544C22.8105 13.0094 22.8105 10.9889 21.5655 9.74393Z" fill="#000E3D"/>
</svg>
