<svg width="86" height="56" viewBox="0 0 86 56" fill="none" xmlns="http://www.w3.org/2000/svg">
<path d="M36.6 33.1C37.45 32.45 38.4 31.9375 39.45 31.5625C40.5 31.1875 41.6 31 42.75 31C43.9 31 45 31.1875 46.05 31.5625C47.1 31.9375 48.05 32.45 48.9 33.1C49.4833 32.4167 49.9375 31.6417 50.2625 30.775C50.5875 29.9083 50.75 28.9833 50.75 28C50.75 25.7833 49.9708 23.8958 48.4125 22.3375C46.8542 20.7792 44.9667 20 42.75 20C40.5333 20 38.6458 20.7792 37.0875 22.3375C35.5292 23.8958 34.75 25.7833 34.75 28C34.75 28.9833 34.9125 29.9083 35.2375 30.775C35.5625 31.6417 36.0167 32.4167 36.6 33.1ZM42.75 29C41.7667 29 40.9375 28.6625 40.2625 27.9875C39.5875 27.3125 39.25 26.4833 39.25 25.5C39.25 24.5167 39.5875 23.6875 40.2625 23.0125C40.9375 22.3375 41.7667 22 42.75 22C43.7333 22 44.5625 22.3375 45.2375 23.0125C45.9125 23.6875 46.25 24.5167 46.25 25.5C46.25 26.4833 45.9125 27.3125 45.2375 27.9875C44.5625 28.6625 43.7333 29 42.75 29ZM42.75 38C41.3667 38 40.0667 37.7375 38.85 37.2125C37.6333 36.6875 36.575 35.975 35.675 35.075C34.775 34.175 34.0625 33.1167 33.5375 31.9C33.0125 30.6833 32.75 29.3833 32.75 28C32.75 26.6167 33.0125 25.3167 33.5375 24.1C34.0625 22.8833 34.775 21.825 35.675 20.925C36.575 20.025 37.6333 19.3125 38.85 18.7875C40.0667 18.2625 41.3667 18 42.75 18C44.1333 18 45.4333 18.2625 46.65 18.7875C47.8667 19.3125 48.925 20.025 49.825 20.925C50.725 21.825 51.4375 22.8833 51.9625 24.1C52.4875 25.3167 52.75 26.6167 52.75 28C52.75 29.3833 52.4875 30.6833 51.9625 31.9C51.4375 33.1167 50.725 34.175 49.825 35.075C48.925 35.975 47.8667 36.6875 46.65 37.2125C45.4333 37.7375 44.1333 38 42.75 38ZM42.75 36C43.6333 36 44.4667 35.8708 45.25 35.6125C46.0333 35.3542 46.75 34.9833 47.4 34.5C46.75 34.0167 46.0333 33.6458 45.25 33.3875C44.4667 33.1292 43.6333 33 42.75 33C41.8667 33 41.0333 33.1292 40.25 33.3875C39.4667 33.6458 38.75 34.0167 38.1 34.5C38.75 34.9833 39.4667 35.3542 40.25 35.6125C41.0333 35.8708 41.8667 36 42.75 36ZM42.75 27C43.1833 27 43.5417 26.8583 43.825 26.575C44.1083 26.2917 44.25 25.9333 44.25 25.5C44.25 25.0667 44.1083 24.7083 43.825 24.425C43.5417 24.1417 43.1833 24 42.75 24C42.3167 24 41.9583 24.1417 41.675 24.425C41.3917 24.7083 41.25 25.0667 41.25 25.5C41.25 25.9333 41.3917 26.2917 41.675 26.575C41.9583 26.8583 42.3167 27 42.75 27Z" fill="#000E3D"/>
</svg>
