<svg width="7" height="12" viewBox="0 0 7 12" fill="none" xmlns="http://www.w3.org/2000/svg">
<path d="M2.98806 11.28V-3.48091e-05H4.18806V11.28H2.98806ZM3.42006 9.98397C2.74806 9.98397 2.10406 9.89597 1.48806 9.71997C0.872063 9.53597 0.376063 9.29997 6.25104e-05 9.01197L0.660063 7.54797C1.02006 7.80397 1.44406 8.01597 1.93206 8.18397C2.42806 8.34397 2.92806 8.42397 3.43206 8.42397C3.81606 8.42397 4.12406 8.38797 4.35606 8.31597C4.59606 8.23597 4.77206 8.12797 4.88406 7.99197C4.99606 7.85597 5.05206 7.69997 5.05206 7.52397C5.05206 7.29997 4.96406 7.12397 4.78806 6.99597C4.61206 6.85997 4.38006 6.75197 4.09206 6.67197C3.80406 6.58397 3.48406 6.50397 3.13206 6.43197C2.78806 6.35197 2.44006 6.25597 2.08806 6.14397C1.74406 6.03197 1.42806 5.88797 1.14006 5.71197C0.852063 5.53597 0.616063 5.30397 0.432063 5.01597C0.256063 4.72797 0.168063 4.35997 0.168063 3.91197C0.168063 3.43197 0.296063 2.99597 0.552063 2.60397C0.816063 2.20397 1.20806 1.88797 1.72806 1.65597C2.25606 1.41597 2.91606 1.29597 3.70806 1.29597C4.23606 1.29597 4.75606 1.35997 5.26806 1.48797C5.78006 1.60797 6.23206 1.79197 6.62406 2.03997L6.02406 3.51597C5.63206 3.29197 5.24006 3.12797 4.84806 3.02397C4.45606 2.91197 4.07206 2.85597 3.69606 2.85597C3.32006 2.85597 3.01206 2.89997 2.77206 2.98797C2.53206 3.07597 2.36006 3.19197 2.25606 3.33597C2.15206 3.47197 2.10006 3.63197 2.10006 3.81597C2.10006 4.03197 2.18806 4.20797 2.36406 4.34397C2.54006 4.47197 2.77206 4.57597 3.06006 4.65597C3.34806 4.73597 3.66406 4.81597 4.00806 4.89597C4.36006 4.97597 4.70806 5.06797 5.05206 5.17197C5.40406 5.27597 5.72406 5.41597 6.01206 5.59197C6.30006 5.76797 6.53206 5.99997 6.70806 6.28797C6.89206 6.57597 6.98406 6.93997 6.98406 7.37997C6.98406 7.85197 6.85206 8.28397 6.58806 8.67597C6.32406 9.06797 5.92806 9.38397 5.40006 9.62397C4.88006 9.86397 4.22006 9.98397 3.42006 9.98397Z" fill="#E5102E"/>
</svg>
