<svg width="24" height="24" viewBox="0 0 24 24" fill="none" xmlns="http://www.w3.org/2000/svg">
<path d="M7.6125 6.9L10.4125 3.275C10.6125 3.00833 10.85 2.8125 11.125 2.6875C11.4 2.5625 11.6875 2.5 11.9875 2.5C12.2875 2.5 12.575 2.5625 12.85 2.6875C13.125 2.8125 13.3625 3.00833 13.5625 3.275L16.3625 6.9L20.6125 8.325C21.0458 8.45833 21.3875 8.70417 21.6375 9.0625C21.8875 9.42083 22.0125 9.81667 22.0125 10.25C22.0125 10.45 21.9833 10.65 21.925 10.85C21.8667 11.05 21.7708 11.2417 21.6375 11.425L18.8875 15.325L18.9875 19.425C19.0042 20.0083 18.8125 20.5 18.4125 20.9C18.0125 21.3 17.5458 21.5 17.0125 21.5C16.9792 21.5 16.7958 21.475 16.4625 21.425L11.9875 20.175L7.5125 21.425C7.42917 21.4583 7.3375 21.4792 7.2375 21.4875C7.1375 21.4958 7.04584 21.5 6.9625 21.5C6.42917 21.5 5.9625 21.3 5.5625 20.9C5.1625 20.5 4.97084 20.0083 4.9875 19.425L5.0875 15.3L2.3625 11.425C2.22917 11.2417 2.13334 11.05 2.075 10.85C2.01667 10.65 1.9875 10.45 1.9875 10.25C1.9875 9.83333 2.10834 9.44583 2.35 9.0875C2.59167 8.72917 2.92917 8.475 3.3625 8.325L7.6125 6.9ZM8.8375 8.625L3.9875 10.225L7.0875 14.7L6.9875 19.475L11.9875 18.1L16.9875 19.5L16.8875 14.7L19.9875 10.275L15.1375 8.625L11.9875 4.5L8.8375 8.625Z" fill="#000E3D"/>
</svg>
