<svg width="24" height="24" viewBox="0 0 24 24" fill="none" xmlns="http://www.w3.org/2000/svg">
<path d="M4 7.5H18V5.5H4V7.5ZM4 21.5C3.45 21.5 2.97933 21.3043 2.588 20.913C2.19667 20.5217 2.00067 20.0507 2 19.5V5.5C2 4.95 2.196 4.47933 2.588 4.088C2.98 3.69667 3.45067 3.50067 4 3.5H5V1.5H7V3.5H15V1.5H17V3.5H18C18.55 3.5 19.021 3.696 19.413 4.088C19.805 4.48 20.0007 4.95067 20 5.5V11.175C19.6833 11.025 19.3583 10.9 19.025 10.8C18.6917 10.7 18.35 10.625 18 10.575V9.5H4V19.5H10.3C10.4167 19.8667 10.5543 20.2167 10.713 20.55C10.8717 20.8833 11.059 21.2 11.275 21.5H4ZM17 22.5C15.6167 22.5 14.4377 22.0123 13.463 21.037C12.4883 20.0617 12.0007 18.8827 12 17.5C11.9993 16.1173 12.487 14.9383 13.463 13.963C14.439 12.9877 15.618 12.5 17 12.5C18.382 12.5 19.5613 12.9877 20.538 13.963C21.5147 14.9383 22.002 16.1173 22 17.5C21.998 18.8827 21.5103 20.062 20.537 21.038C19.5637 22.014 18.3847 22.5013 17 22.5ZM18.675 19.875L19.375 19.175L17.5 17.3V14.5H16.5V17.7L18.675 19.875Z" fill="currentColor"/>
</svg>
