<svg width="24" height="24" viewBox="0 0 24 24" fill="none" xmlns="http://www.w3.org/2000/svg">
<path d="M16 22.5C15.7167 22.5 15.4792 22.4042 15.2875 22.2125C15.0958 22.0208 15 21.7833 15 21.5C15 21.2167 15.0958 20.9792 15.2875 20.7875C15.4792 20.5958 15.7167 20.5 16 20.5H19V19.5H16C15.7167 19.5 15.4792 19.4042 15.2875 19.2125C15.0958 19.0208 15 18.7833 15 18.5C15 18.2167 15.0958 17.9792 15.2875 17.7875C15.4792 17.5958 15.7167 17.5 16 17.5H19V16.5H16C15.7167 16.5 15.4792 16.4042 15.2875 16.2125C15.0958 16.0208 15 15.7833 15 15.5C15 15.2167 15.0958 14.9792 15.2875 14.7875C15.4792 14.5958 15.7167 14.5 16 14.5H19V13.5H16C15.7167 13.5 15.4792 13.4042 15.2875 13.2125C15.0958 13.0208 15 12.7833 15 12.5C15 12.2167 15.0958 11.9792 15.2875 11.7875C15.4792 11.5958 15.7167 11.5 16 11.5H19V10.5H16C15.7167 10.5 15.4792 10.4042 15.2875 10.2125C15.0958 10.0208 15 9.78333 15 9.5C15 9.21667 15.0958 8.97917 15.2875 8.7875C15.4792 8.59583 15.7167 8.5 16 8.5H19V7.5H16C15.7167 7.5 15.4792 7.40417 15.2875 7.2125C15.0958 7.02083 15 6.78333 15 6.5C15 6.21667 15.0958 5.97917 15.2875 5.7875C15.4792 5.59583 15.7167 5.5 16 5.5H20C20.55 5.5 21.0208 5.69583 21.4125 6.0875C21.8042 6.47917 22 6.95 22 7.5V20.5C22 21.05 21.8042 21.5208 21.4125 21.9125C21.0208 22.3042 20.55 22.5 20 22.5H16ZM8 14.5C9.1 14.5 10.0417 13.9583 10.825 12.875C11.6083 11.7917 12 10.5 12 9C12 7.5 11.6083 6.20833 10.825 5.125C10.0417 4.04167 9.1 3.5 8 3.5C6.9 3.5 5.95833 4.04167 5.175 5.125C4.39167 6.20833 4 7.5 4 9C4 10.5 4.39167 11.7917 5.175 12.875C5.95833 13.9583 6.9 14.5 8 14.5ZM8 22.5C7.2 22.5 6.54167 22.2042 6.025 21.6125C5.50833 21.0208 5.30833 20.325 5.425 19.525L5.825 16C4.69167 15.45 3.77083 14.5458 3.0625 13.2875C2.35417 12.0292 2 10.6 2 9C2 6.91667 2.58333 5.14583 3.75 3.6875C4.91667 2.22917 6.33333 1.5 8 1.5C9.66667 1.5 11.0833 2.22917 12.25 3.6875C13.4167 5.14583 14 6.91667 14 9C14 10.6 13.6458 12.0292 12.9375 13.2875C12.2292 14.5458 11.3083 15.45 10.175 16L10.575 19.525C10.6917 20.325 10.4917 21.0208 9.975 21.6125C9.45833 22.2042 8.8 22.5 8 22.5Z" fill="#000E3D"/>
</svg>
