<svg width="24" height="24" viewBox="0 0 24 24" fill="none" xmlns="http://www.w3.org/2000/svg">
<path d="M9.26368 21.9503L8.86567 18.7662C8.65008 18.6833 8.44693 18.5838 8.25622 18.4677C8.06551 18.3516 7.87894 18.2273 7.69652 18.0946L4.73632 19.3384L2 14.612L4.56219 12.6717C4.54561 12.5556 4.53731 12.4437 4.53731 12.3359V11.6642C4.53731 11.5564 4.54561 11.4445 4.56219 11.3284L2 9.38811L4.73632 4.66174L7.69652 5.90553C7.87894 5.77286 8.06965 5.64848 8.26866 5.53239C8.46766 5.41631 8.66667 5.3168 8.86567 5.23388L9.26368 2.0498H14.7363L15.1343 5.23388C15.3499 5.3168 15.5531 5.41631 15.7438 5.53239C15.9345 5.64848 16.1211 5.77286 16.3035 5.90553L19.2637 4.66174L22 9.38811L19.4378 11.3284C19.4544 11.4445 19.4627 11.5564 19.4627 11.6642V12.3359C19.4627 12.4437 19.4461 12.5556 19.4129 12.6717L21.9751 14.612L19.2388 19.3384L16.3035 18.0946C16.1211 18.2273 15.9303 18.3516 15.7313 18.4677C15.5323 18.5838 15.3333 18.6833 15.1343 18.7662L14.7363 21.9503H9.26368ZM11.005 19.9603H12.9701L13.3184 17.3234C13.8325 17.1908 14.3093 16.9959 14.7488 16.7389C15.1882 16.4818 15.5904 16.1709 15.9552 15.806L18.4179 16.8259L19.3881 15.1344L17.2488 13.5175C17.3317 13.2853 17.3897 13.0407 17.4229 12.7836C17.4561 12.5266 17.4726 12.2654 17.4726 12.0001C17.4726 11.7347 17.4561 11.4735 17.4229 11.2165C17.3897 10.9594 17.3317 10.7148 17.2488 10.4826L19.3881 8.86573L18.4179 7.17418L15.9552 8.21896C15.5904 7.83753 15.1882 7.5183 14.7488 7.26125C14.3093 7.0042 13.8325 6.80934 13.3184 6.67667L12.995 4.03985H11.0299L10.6816 6.67667C10.1675 6.80934 9.69071 7.0042 9.25124 7.26125C8.81177 7.5183 8.40962 7.82924 8.04478 8.19408L5.58209 7.17418L4.61194 8.86573L6.75124 10.4578C6.66832 10.7065 6.61028 10.9553 6.57711 11.204C6.54395 11.4528 6.52736 11.7181 6.52736 12.0001C6.52736 12.2654 6.54395 12.5224 6.57711 12.7712C6.61028 13.02 6.66832 13.2687 6.75124 13.5175L4.61194 15.1344L5.58209 16.8259L8.04478 15.7811C8.40962 16.1626 8.81177 16.4818 9.25124 16.7389C9.69071 16.9959 10.1675 17.1908 10.6816 17.3234L11.005 19.9603ZM12.0498 15.4826C13.0116 15.4826 13.8325 15.1427 14.5124 14.4627C15.1924 13.7828 15.5323 12.9619 15.5323 12.0001C15.5323 11.0382 15.1924 10.2173 14.5124 9.53737C13.8325 8.85743 13.0116 8.51747 12.0498 8.51747C11.0713 8.51747 10.2463 8.85743 9.57463 9.53737C8.90299 10.2173 8.56716 11.0382 8.56716 12.0001C8.56716 12.9619 8.90299 13.7828 9.57463 14.4627C10.2463 15.1427 11.0713 15.4826 12.0498 15.4826Z" fill="#000E3D"/>
</svg>
