<svg width="67" height="35" viewBox="0 0 67 35" fill="none" xmlns="http://www.w3.org/2000/svg">
<path d="M55.3032 17.3162V0H58.9643V14.2977H66.3879V17.3162H55.3032Z" fill="#000E3D"/>
<path d="M41.7939 17.3162V0H45.455V14.2977H52.8787V17.3162H41.7939Z" fill="#000E3D"/>
<path d="M26.9676 17.3162H23.0444L29.0222 0H33.7402L39.7096 17.3162H35.7864L31.4489 3.95701H31.3136L26.9676 17.3162ZM26.7224 10.5098H35.9893V13.3676H26.7224V10.5098Z" fill="#000E3D"/>
<path d="M4.95472 17.3162L0 0H3.99929L6.86559 12.0317H7.00933L10.1716 0H13.5959L16.7497 12.0571H16.9019L19.7682 0H23.7675L18.8127 17.3162H15.2447L11.9471 5.99471H11.8119L8.5228 17.3162H4.95472Z" fill="#000E3D"/>
<path d="M26.3572 27.5993C26.3572 29.1553 26.0622 30.479 25.4724 31.5705C24.8871 32.6619 24.0883 33.4957 23.0757 34.0716C22.0679 34.6429 20.9346 34.9285 19.6759 34.9285C18.4079 34.9285 17.27 34.6406 16.2621 34.0646C15.2542 33.4887 14.4577 32.655 13.8725 31.5635C13.2872 30.472 12.9946 29.1506 12.9946 27.5993C12.9946 26.0434 13.2872 24.7197 13.8725 23.6282C14.4577 22.5367 15.2542 21.7053 16.2621 21.134C17.27 20.5581 18.4079 20.2701 19.6759 20.2701C20.9346 20.2701 22.0679 20.5581 23.0757 21.134C24.0883 21.7053 24.8871 22.5367 25.4724 23.6282C26.0622 24.7197 26.3572 26.0434 26.3572 27.5993ZM23.2987 27.5993C23.2987 26.5914 23.1477 25.7415 22.8458 25.0494C22.5486 24.3574 22.1282 23.8326 21.5848 23.4749C21.0414 23.1173 20.4051 22.9385 19.6759 22.9385C18.9467 22.9385 18.3104 23.1173 17.767 23.4749C17.2235 23.8326 16.8009 24.3574 16.499 25.0494C16.2017 25.7415 16.0531 26.5914 16.0531 27.5993C16.0531 28.6072 16.2017 29.4572 16.499 30.1492C16.8009 30.8413 17.2235 31.3661 17.767 31.7237C18.3104 32.0814 18.9467 32.2602 19.6759 32.2602C20.4051 32.2602 21.0414 32.0814 21.5848 31.7237C22.1282 31.3661 22.5486 30.8413 22.8458 30.1492C23.1477 29.4572 23.2987 28.6072 23.2987 27.5993Z" fill="#E5102E"/>
<path d="M0.248535 22.9524V20.4652H11.9669V22.9524H7.59862V34.7334H4.61679V22.9524H0.248535Z" fill="#E5102E"/>
<path d="M57.2544 34.7334V20.4652H60.2711V32.2463H66.388V34.7334H57.2544Z" fill="#000E3D"/>
<path d="M46.123 34.7334V20.4652H49.1397V32.2463H55.2567V34.7334H46.123Z" fill="#000E3D"/>
<path d="M33.9065 34.7334H30.6738L35.5994 20.4652H39.487L44.4056 34.7334H41.173L37.5989 23.7257H37.4875L33.9065 34.7334ZM33.7044 29.1251H41.3402V31.4799H33.7044V29.1251Z" fill="#000E3D"/>
</svg>
